G04 #@! TF.FileFunction,Legend,Bot*
%FSLAX46Y46*%
G04 Gerber Fmt 4.6, Leading zero omitted, Abs format (unit mm)*
G04 Created by KiCad (PCBNEW 4.0.7) date 03/05/18 22:52:48*
%MOMM*%
%LPD*%
G01*
G04 APERTURE LIST*
%ADD10C,0.100000*%
%ADD11C,0.300000*%
G04 APERTURE END LIST*
D10*
D11*
X127035716Y-124921429D02*
X126535716Y-125635714D01*
X126178573Y-124921429D02*
X126178573Y-126421429D01*
X126750001Y-126421429D01*
X126892859Y-126350000D01*
X126964287Y-126278571D01*
X127035716Y-126135714D01*
X127035716Y-125921429D01*
X126964287Y-125778571D01*
X126892859Y-125707143D01*
X126750001Y-125635714D01*
X126178573Y-125635714D01*
X128250001Y-124992857D02*
X128107144Y-124921429D01*
X127821430Y-124921429D01*
X127678573Y-124992857D01*
X127607144Y-125135714D01*
X127607144Y-125707143D01*
X127678573Y-125850000D01*
X127821430Y-125921429D01*
X128107144Y-125921429D01*
X128250001Y-125850000D01*
X128321430Y-125707143D01*
X128321430Y-125564286D01*
X127607144Y-125421429D01*
X128964287Y-124921429D02*
X128964287Y-125921429D01*
X128964287Y-125778571D02*
X129035715Y-125850000D01*
X129178573Y-125921429D01*
X129392858Y-125921429D01*
X129535715Y-125850000D01*
X129607144Y-125707143D01*
X129607144Y-124921429D01*
X129607144Y-125707143D02*
X129678573Y-125850000D01*
X129821430Y-125921429D01*
X130035715Y-125921429D01*
X130178573Y-125850000D01*
X130250001Y-125707143D01*
X130250001Y-124921429D01*
X131535715Y-124992857D02*
X131392858Y-124921429D01*
X131107144Y-124921429D01*
X130964287Y-124992857D01*
X130892858Y-125135714D01*
X130892858Y-125707143D01*
X130964287Y-125850000D01*
X131107144Y-125921429D01*
X131392858Y-125921429D01*
X131535715Y-125850000D01*
X131607144Y-125707143D01*
X131607144Y-125564286D01*
X130892858Y-125421429D01*
X132250001Y-124921429D02*
X132250001Y-125921429D01*
X132250001Y-125778571D02*
X132321429Y-125850000D01*
X132464287Y-125921429D01*
X132678572Y-125921429D01*
X132821429Y-125850000D01*
X132892858Y-125707143D01*
X132892858Y-124921429D01*
X132892858Y-125707143D02*
X132964287Y-125850000D01*
X133107144Y-125921429D01*
X133321429Y-125921429D01*
X133464287Y-125850000D01*
X133535715Y-125707143D01*
X133535715Y-124921429D01*
X134250001Y-124921429D02*
X134250001Y-126421429D01*
X134250001Y-125850000D02*
X134392858Y-125921429D01*
X134678572Y-125921429D01*
X134821429Y-125850000D01*
X134892858Y-125778571D01*
X134964287Y-125635714D01*
X134964287Y-125207143D01*
X134892858Y-125064286D01*
X134821429Y-124992857D01*
X134678572Y-124921429D01*
X134392858Y-124921429D01*
X134250001Y-124992857D01*
X136178572Y-124992857D02*
X136035715Y-124921429D01*
X135750001Y-124921429D01*
X135607144Y-124992857D01*
X135535715Y-125135714D01*
X135535715Y-125707143D01*
X135607144Y-125850000D01*
X135750001Y-125921429D01*
X136035715Y-125921429D01*
X136178572Y-125850000D01*
X136250001Y-125707143D01*
X136250001Y-125564286D01*
X135535715Y-125421429D01*
X136892858Y-124921429D02*
X136892858Y-125921429D01*
X136892858Y-125635714D02*
X136964286Y-125778571D01*
X137035715Y-125850000D01*
X137178572Y-125921429D01*
X137321429Y-125921429D01*
X138750000Y-125921429D02*
X139321429Y-125921429D01*
X138964286Y-126421429D02*
X138964286Y-125135714D01*
X139035714Y-124992857D01*
X139178572Y-124921429D01*
X139321429Y-124921429D01*
X140035715Y-124921429D02*
X139892857Y-124992857D01*
X139821429Y-125064286D01*
X139750000Y-125207143D01*
X139750000Y-125635714D01*
X139821429Y-125778571D01*
X139892857Y-125850000D01*
X140035715Y-125921429D01*
X140250000Y-125921429D01*
X140392857Y-125850000D01*
X140464286Y-125778571D01*
X140535715Y-125635714D01*
X140535715Y-125207143D01*
X140464286Y-125064286D01*
X140392857Y-124992857D01*
X140250000Y-124921429D01*
X140035715Y-124921429D01*
X142964286Y-124992857D02*
X142821429Y-124921429D01*
X142535715Y-124921429D01*
X142392857Y-124992857D01*
X142321429Y-125064286D01*
X142250000Y-125207143D01*
X142250000Y-125635714D01*
X142321429Y-125778571D01*
X142392857Y-125850000D01*
X142535715Y-125921429D01*
X142821429Y-125921429D01*
X142964286Y-125850000D01*
X144250000Y-124921429D02*
X144250000Y-125707143D01*
X144178571Y-125850000D01*
X144035714Y-125921429D01*
X143750000Y-125921429D01*
X143607143Y-125850000D01*
X144250000Y-124992857D02*
X144107143Y-124921429D01*
X143750000Y-124921429D01*
X143607143Y-124992857D01*
X143535714Y-125135714D01*
X143535714Y-125278571D01*
X143607143Y-125421429D01*
X143750000Y-125492857D01*
X144107143Y-125492857D01*
X144250000Y-125564286D01*
X145178572Y-124921429D02*
X145035714Y-124992857D01*
X144964286Y-125135714D01*
X144964286Y-126421429D01*
X146392857Y-124992857D02*
X146250000Y-124921429D01*
X145964286Y-124921429D01*
X145821428Y-124992857D01*
X145750000Y-125064286D01*
X145678571Y-125207143D01*
X145678571Y-125635714D01*
X145750000Y-125778571D01*
X145821428Y-125850000D01*
X145964286Y-125921429D01*
X146250000Y-125921429D01*
X146392857Y-125850000D01*
X147678571Y-125921429D02*
X147678571Y-124921429D01*
X147035714Y-125921429D02*
X147035714Y-125135714D01*
X147107142Y-124992857D01*
X147250000Y-124921429D01*
X147464285Y-124921429D01*
X147607142Y-124992857D01*
X147678571Y-125064286D01*
X148607143Y-124921429D02*
X148464285Y-124992857D01*
X148392857Y-125135714D01*
X148392857Y-126421429D01*
X149821428Y-124921429D02*
X149821428Y-125707143D01*
X149749999Y-125850000D01*
X149607142Y-125921429D01*
X149321428Y-125921429D01*
X149178571Y-125850000D01*
X149821428Y-124992857D02*
X149678571Y-124921429D01*
X149321428Y-124921429D01*
X149178571Y-124992857D01*
X149107142Y-125135714D01*
X149107142Y-125278571D01*
X149178571Y-125421429D01*
X149321428Y-125492857D01*
X149678571Y-125492857D01*
X149821428Y-125564286D01*
X150321428Y-125921429D02*
X150892857Y-125921429D01*
X150535714Y-126421429D02*
X150535714Y-125135714D01*
X150607142Y-124992857D01*
X150750000Y-124921429D01*
X150892857Y-124921429D01*
X151964285Y-124992857D02*
X151821428Y-124921429D01*
X151535714Y-124921429D01*
X151392857Y-124992857D01*
X151321428Y-125135714D01*
X151321428Y-125707143D01*
X151392857Y-125850000D01*
X151535714Y-125921429D01*
X151821428Y-125921429D01*
X151964285Y-125850000D01*
X152035714Y-125707143D01*
X152035714Y-125564286D01*
X151321428Y-125421429D01*
X153607142Y-125921429D02*
X154178571Y-125921429D01*
X153821428Y-126421429D02*
X153821428Y-125135714D01*
X153892856Y-124992857D01*
X154035714Y-124921429D01*
X154178571Y-124921429D01*
X154678571Y-124921429D02*
X154678571Y-126421429D01*
X155321428Y-124921429D02*
X155321428Y-125707143D01*
X155249999Y-125850000D01*
X155107142Y-125921429D01*
X154892857Y-125921429D01*
X154749999Y-125850000D01*
X154678571Y-125778571D01*
X156607142Y-124992857D02*
X156464285Y-124921429D01*
X156178571Y-124921429D01*
X156035714Y-124992857D01*
X155964285Y-125135714D01*
X155964285Y-125707143D01*
X156035714Y-125850000D01*
X156178571Y-125921429D01*
X156464285Y-125921429D01*
X156607142Y-125850000D01*
X156678571Y-125707143D01*
X156678571Y-125564286D01*
X155964285Y-125421429D01*
X159321428Y-124921429D02*
X158821428Y-125635714D01*
X158464285Y-124921429D02*
X158464285Y-126421429D01*
X159035713Y-126421429D01*
X159178571Y-126350000D01*
X159249999Y-126278571D01*
X159321428Y-126135714D01*
X159321428Y-125921429D01*
X159249999Y-125778571D01*
X159178571Y-125707143D01*
X159035713Y-125635714D01*
X158464285Y-125635714D01*
X161749999Y-124921429D02*
X161749999Y-125707143D01*
X161678570Y-125850000D01*
X161535713Y-125921429D01*
X161249999Y-125921429D01*
X161107142Y-125850000D01*
X161749999Y-124992857D02*
X161607142Y-124921429D01*
X161249999Y-124921429D01*
X161107142Y-124992857D01*
X161035713Y-125135714D01*
X161035713Y-125278571D01*
X161107142Y-125421429D01*
X161249999Y-125492857D01*
X161607142Y-125492857D01*
X161749999Y-125564286D01*
X162464285Y-125921429D02*
X162464285Y-124921429D01*
X162464285Y-125778571D02*
X162535713Y-125850000D01*
X162678571Y-125921429D01*
X162892856Y-125921429D01*
X163035713Y-125850000D01*
X163107142Y-125707143D01*
X163107142Y-124921429D01*
X164464285Y-124921429D02*
X164464285Y-126421429D01*
X164464285Y-124992857D02*
X164321428Y-124921429D01*
X164035714Y-124921429D01*
X163892856Y-124992857D01*
X163821428Y-125064286D01*
X163749999Y-125207143D01*
X163749999Y-125635714D01*
X163821428Y-125778571D01*
X163892856Y-125850000D01*
X164035714Y-125921429D01*
X164321428Y-125921429D01*
X164464285Y-125850000D01*
X167178571Y-125064286D02*
X167107142Y-124992857D01*
X166892856Y-124921429D01*
X166749999Y-124921429D01*
X166535714Y-124992857D01*
X166392856Y-125135714D01*
X166321428Y-125278571D01*
X166249999Y-125564286D01*
X166249999Y-125778571D01*
X166321428Y-126064286D01*
X166392856Y-126207143D01*
X166535714Y-126350000D01*
X166749999Y-126421429D01*
X166892856Y-126421429D01*
X167107142Y-126350000D01*
X167178571Y-126278571D01*
X167821428Y-125064286D02*
X167892856Y-124992857D01*
X167821428Y-124921429D01*
X167749999Y-124992857D01*
X167821428Y-125064286D01*
X167821428Y-124921429D01*
X121321428Y-123871429D02*
X122178571Y-123871429D01*
X121750000Y-122371429D02*
X121750000Y-123871429D01*
X122678571Y-122371429D02*
X122678571Y-123871429D01*
X123321428Y-122371429D02*
X123321428Y-123157143D01*
X123249999Y-123300000D01*
X123107142Y-123371429D01*
X122892857Y-123371429D01*
X122749999Y-123300000D01*
X122678571Y-123228571D01*
X124607142Y-122442857D02*
X124464285Y-122371429D01*
X124178571Y-122371429D01*
X124035714Y-122442857D01*
X123964285Y-122585714D01*
X123964285Y-123157143D01*
X124035714Y-123300000D01*
X124178571Y-123371429D01*
X124464285Y-123371429D01*
X124607142Y-123300000D01*
X124678571Y-123157143D01*
X124678571Y-123014286D01*
X123964285Y-122871429D01*
X126249999Y-123371429D02*
X126821428Y-123371429D01*
X126464285Y-123871429D02*
X126464285Y-122585714D01*
X126535713Y-122442857D01*
X126678571Y-122371429D01*
X126821428Y-122371429D01*
X127321428Y-122371429D02*
X127321428Y-123871429D01*
X127964285Y-122371429D02*
X127964285Y-123157143D01*
X127892856Y-123300000D01*
X127749999Y-123371429D01*
X127535714Y-123371429D01*
X127392856Y-123300000D01*
X127321428Y-123228571D01*
X128678571Y-122371429D02*
X128678571Y-123371429D01*
X128678571Y-123085714D02*
X128749999Y-123228571D01*
X128821428Y-123300000D01*
X128964285Y-123371429D01*
X129107142Y-123371429D01*
X129821428Y-122371429D02*
X129678570Y-122442857D01*
X129607142Y-122514286D01*
X129535713Y-122657143D01*
X129535713Y-123085714D01*
X129607142Y-123228571D01*
X129678570Y-123300000D01*
X129821428Y-123371429D01*
X130035713Y-123371429D01*
X130178570Y-123300000D01*
X130249999Y-123228571D01*
X130321428Y-123085714D01*
X130321428Y-122657143D01*
X130249999Y-122514286D01*
X130178570Y-122442857D01*
X130035713Y-122371429D01*
X129821428Y-122371429D01*
X131607142Y-123371429D02*
X131607142Y-122371429D01*
X130964285Y-123371429D02*
X130964285Y-122585714D01*
X131035713Y-122442857D01*
X131178571Y-122371429D01*
X131392856Y-122371429D01*
X131535713Y-122442857D01*
X131607142Y-122514286D01*
X132964285Y-123371429D02*
X132964285Y-122157143D01*
X132892856Y-122014286D01*
X132821428Y-121942857D01*
X132678571Y-121871429D01*
X132464285Y-121871429D01*
X132321428Y-121942857D01*
X132964285Y-122442857D02*
X132821428Y-122371429D01*
X132535714Y-122371429D01*
X132392856Y-122442857D01*
X132321428Y-122514286D01*
X132249999Y-122657143D01*
X132249999Y-123085714D01*
X132321428Y-123228571D01*
X132392856Y-123300000D01*
X132535714Y-123371429D01*
X132821428Y-123371429D01*
X132964285Y-123300000D01*
X133678571Y-122371429D02*
X133678571Y-123871429D01*
X134321428Y-122371429D02*
X134321428Y-123157143D01*
X134249999Y-123300000D01*
X134107142Y-123371429D01*
X133892857Y-123371429D01*
X133749999Y-123300000D01*
X133678571Y-123228571D01*
X136178571Y-122371429D02*
X136178571Y-123871429D01*
X136821428Y-122371429D02*
X136821428Y-123157143D01*
X136749999Y-123300000D01*
X136607142Y-123371429D01*
X136392857Y-123371429D01*
X136249999Y-123300000D01*
X136178571Y-123228571D01*
X137750000Y-122371429D02*
X137607142Y-122442857D01*
X137535714Y-122514286D01*
X137464285Y-122657143D01*
X137464285Y-123085714D01*
X137535714Y-123228571D01*
X137607142Y-123300000D01*
X137750000Y-123371429D01*
X137964285Y-123371429D01*
X138107142Y-123300000D01*
X138178571Y-123228571D01*
X138250000Y-123085714D01*
X138250000Y-122657143D01*
X138178571Y-122514286D01*
X138107142Y-122442857D01*
X137964285Y-122371429D01*
X137750000Y-122371429D01*
X139107143Y-122371429D02*
X138964285Y-122442857D01*
X138892857Y-122585714D01*
X138892857Y-123871429D01*
X140249999Y-122442857D02*
X140107142Y-122371429D01*
X139821428Y-122371429D01*
X139678571Y-122442857D01*
X139607142Y-122585714D01*
X139607142Y-123157143D01*
X139678571Y-123300000D01*
X139821428Y-123371429D01*
X140107142Y-123371429D01*
X140249999Y-123300000D01*
X140321428Y-123157143D01*
X140321428Y-123014286D01*
X139607142Y-122871429D01*
X142964285Y-122371429D02*
X142464285Y-123085714D01*
X142107142Y-122371429D02*
X142107142Y-123871429D01*
X142678570Y-123871429D01*
X142821428Y-123800000D01*
X142892856Y-123728571D01*
X142964285Y-123585714D01*
X142964285Y-123371429D01*
X142892856Y-123228571D01*
X142821428Y-123157143D01*
X142678570Y-123085714D01*
X142107142Y-123085714D01*
X145392856Y-122442857D02*
X145249999Y-122371429D01*
X144964285Y-122371429D01*
X144821427Y-122442857D01*
X144749999Y-122514286D01*
X144678570Y-122657143D01*
X144678570Y-123085714D01*
X144749999Y-123228571D01*
X144821427Y-123300000D01*
X144964285Y-123371429D01*
X145249999Y-123371429D01*
X145392856Y-123300000D01*
X146678570Y-122371429D02*
X146678570Y-123157143D01*
X146607141Y-123300000D01*
X146464284Y-123371429D01*
X146178570Y-123371429D01*
X146035713Y-123300000D01*
X146678570Y-122442857D02*
X146535713Y-122371429D01*
X146178570Y-122371429D01*
X146035713Y-122442857D01*
X145964284Y-122585714D01*
X145964284Y-122728571D01*
X146035713Y-122871429D01*
X146178570Y-122942857D01*
X146535713Y-122942857D01*
X146678570Y-123014286D01*
X147392856Y-123371429D02*
X147392856Y-122371429D01*
X147392856Y-123228571D02*
X147464284Y-123300000D01*
X147607142Y-123371429D01*
X147821427Y-123371429D01*
X147964284Y-123300000D01*
X148035713Y-123157143D01*
X148035713Y-122371429D01*
X149892856Y-122371429D02*
X149892856Y-123871429D01*
X149892856Y-123300000D02*
X150035713Y-123371429D01*
X150321427Y-123371429D01*
X150464284Y-123300000D01*
X150535713Y-123228571D01*
X150607142Y-123085714D01*
X150607142Y-122657143D01*
X150535713Y-122514286D01*
X150464284Y-122442857D01*
X150321427Y-122371429D01*
X150035713Y-122371429D01*
X149892856Y-122442857D01*
X151821427Y-122442857D02*
X151678570Y-122371429D01*
X151392856Y-122371429D01*
X151249999Y-122442857D01*
X151178570Y-122585714D01*
X151178570Y-123157143D01*
X151249999Y-123300000D01*
X151392856Y-123371429D01*
X151678570Y-123371429D01*
X151821427Y-123300000D01*
X151892856Y-123157143D01*
X151892856Y-123014286D01*
X151178570Y-122871429D01*
X153464284Y-123371429D02*
X154035713Y-123371429D01*
X153678570Y-122371429D02*
X153678570Y-123657143D01*
X153749998Y-123800000D01*
X153892856Y-123871429D01*
X154035713Y-123871429D01*
X154535713Y-122371429D02*
X154535713Y-123371429D01*
X154535713Y-123871429D02*
X154464284Y-123800000D01*
X154535713Y-123728571D01*
X154607141Y-123800000D01*
X154535713Y-123871429D01*
X154535713Y-123728571D01*
X155035713Y-123371429D02*
X155607142Y-123371429D01*
X155249999Y-123871429D02*
X155249999Y-122585714D01*
X155321427Y-122442857D01*
X155464285Y-122371429D01*
X155607142Y-122371429D01*
X155892856Y-123371429D02*
X156464285Y-123371429D01*
X156107142Y-123871429D02*
X156107142Y-122585714D01*
X156178570Y-122442857D01*
X156321428Y-122371429D01*
X156464285Y-122371429D01*
X157535713Y-122442857D02*
X157392856Y-122371429D01*
X157107142Y-122371429D01*
X156964285Y-122442857D01*
X156892856Y-122585714D01*
X156892856Y-123157143D01*
X156964285Y-123300000D01*
X157107142Y-123371429D01*
X157392856Y-123371429D01*
X157535713Y-123300000D01*
X157607142Y-123157143D01*
X157607142Y-123014286D01*
X156892856Y-122871429D01*
X158892856Y-122371429D02*
X158892856Y-123871429D01*
X158892856Y-122442857D02*
X158749999Y-122371429D01*
X158464285Y-122371429D01*
X158321427Y-122442857D01*
X158249999Y-122514286D01*
X158178570Y-122657143D01*
X158178570Y-123085714D01*
X158249999Y-123228571D01*
X158321427Y-123300000D01*
X158464285Y-123371429D01*
X158749999Y-123371429D01*
X158892856Y-123300000D01*
X160607142Y-123371429D02*
X160892856Y-122371429D01*
X161178570Y-123085714D01*
X161464285Y-122371429D01*
X161749999Y-123371429D01*
X162321428Y-122371429D02*
X162321428Y-123371429D01*
X162321428Y-123871429D02*
X162249999Y-123800000D01*
X162321428Y-123728571D01*
X162392856Y-123800000D01*
X162321428Y-123871429D01*
X162321428Y-123728571D01*
X162821428Y-123371429D02*
X163392857Y-123371429D01*
X163035714Y-123871429D02*
X163035714Y-122585714D01*
X163107142Y-122442857D01*
X163250000Y-122371429D01*
X163392857Y-122371429D01*
X163892857Y-122371429D02*
X163892857Y-123871429D01*
X164535714Y-122371429D02*
X164535714Y-123157143D01*
X164464285Y-123300000D01*
X164321428Y-123371429D01*
X164107143Y-123371429D01*
X163964285Y-123300000D01*
X163892857Y-123228571D01*
X166392857Y-122371429D02*
X166392857Y-123871429D01*
X166964285Y-123871429D01*
X167107143Y-123800000D01*
X167178571Y-123728571D01*
X167250000Y-123585714D01*
X167250000Y-123371429D01*
X167178571Y-123228571D01*
X167107143Y-123157143D01*
X166964285Y-123085714D01*
X166392857Y-123085714D01*
X168107143Y-122371429D02*
X167964285Y-122442857D01*
X167892857Y-122514286D01*
X167821428Y-122657143D01*
X167821428Y-123085714D01*
X167892857Y-123228571D01*
X167964285Y-123300000D01*
X168107143Y-123371429D01*
X168321428Y-123371429D01*
X168464285Y-123300000D01*
X168535714Y-123228571D01*
X168607143Y-123085714D01*
X168607143Y-122657143D01*
X168535714Y-122514286D01*
X168464285Y-122442857D01*
X168321428Y-122371429D01*
X168107143Y-122371429D01*
X169035714Y-123371429D02*
X169607143Y-123371429D01*
X169250000Y-123871429D02*
X169250000Y-122585714D01*
X169321428Y-122442857D01*
X169464286Y-122371429D01*
X169607143Y-122371429D01*
X170178571Y-123871429D02*
X170035714Y-123585714D01*
X170750000Y-122442857D02*
X170892857Y-122371429D01*
X171178572Y-122371429D01*
X171321429Y-122442857D01*
X171392857Y-122585714D01*
X171392857Y-122657143D01*
X171321429Y-122800000D01*
X171178572Y-122871429D01*
X170964286Y-122871429D01*
X170821429Y-122942857D01*
X170750000Y-123085714D01*
X170750000Y-123157143D01*
X170821429Y-123300000D01*
X170964286Y-123371429D01*
X171178572Y-123371429D01*
X171321429Y-123300000D01*
X118678572Y-120821429D02*
X119250001Y-120821429D01*
X118892858Y-119821429D02*
X118892858Y-121107143D01*
X118964286Y-121250000D01*
X119107144Y-121321429D01*
X119250001Y-121321429D01*
X119964287Y-119821429D02*
X119821429Y-119892857D01*
X119750001Y-119964286D01*
X119678572Y-120107143D01*
X119678572Y-120535714D01*
X119750001Y-120678571D01*
X119821429Y-120750000D01*
X119964287Y-120821429D01*
X120178572Y-120821429D01*
X120321429Y-120750000D01*
X120392858Y-120678571D01*
X120464287Y-120535714D01*
X120464287Y-120107143D01*
X120392858Y-119964286D01*
X120321429Y-119892857D01*
X120178572Y-119821429D01*
X119964287Y-119821429D01*
X121107144Y-119821429D02*
X121107144Y-120821429D01*
X121107144Y-120535714D02*
X121178572Y-120678571D01*
X121250001Y-120750000D01*
X121392858Y-120821429D01*
X121535715Y-120821429D01*
X123035715Y-120821429D02*
X123392858Y-119821429D01*
X123750000Y-120821429D01*
X124964286Y-119821429D02*
X124964286Y-120607143D01*
X124892857Y-120750000D01*
X124750000Y-120821429D01*
X124464286Y-120821429D01*
X124321429Y-120750000D01*
X124964286Y-119892857D02*
X124821429Y-119821429D01*
X124464286Y-119821429D01*
X124321429Y-119892857D01*
X124250000Y-120035714D01*
X124250000Y-120178571D01*
X124321429Y-120321429D01*
X124464286Y-120392857D01*
X124821429Y-120392857D01*
X124964286Y-120464286D01*
X125678572Y-119821429D02*
X125678572Y-120821429D01*
X125678572Y-120535714D02*
X125750000Y-120678571D01*
X125821429Y-120750000D01*
X125964286Y-120821429D01*
X126107143Y-120821429D01*
X126607143Y-119821429D02*
X126607143Y-120821429D01*
X126607143Y-121321429D02*
X126535714Y-121250000D01*
X126607143Y-121178571D01*
X126678571Y-121250000D01*
X126607143Y-121321429D01*
X126607143Y-121178571D01*
X127964286Y-119821429D02*
X127964286Y-120607143D01*
X127892857Y-120750000D01*
X127750000Y-120821429D01*
X127464286Y-120821429D01*
X127321429Y-120750000D01*
X127964286Y-119892857D02*
X127821429Y-119821429D01*
X127464286Y-119821429D01*
X127321429Y-119892857D01*
X127250000Y-120035714D01*
X127250000Y-120178571D01*
X127321429Y-120321429D01*
X127464286Y-120392857D01*
X127821429Y-120392857D01*
X127964286Y-120464286D01*
X128678572Y-119821429D02*
X128678572Y-121321429D01*
X128678572Y-120750000D02*
X128821429Y-120821429D01*
X129107143Y-120821429D01*
X129250000Y-120750000D01*
X129321429Y-120678571D01*
X129392858Y-120535714D01*
X129392858Y-120107143D01*
X129321429Y-119964286D01*
X129250000Y-119892857D01*
X129107143Y-119821429D01*
X128821429Y-119821429D01*
X128678572Y-119892857D01*
X130250001Y-119821429D02*
X130107143Y-119892857D01*
X130035715Y-120035714D01*
X130035715Y-121321429D01*
X131392857Y-119892857D02*
X131250000Y-119821429D01*
X130964286Y-119821429D01*
X130821429Y-119892857D01*
X130750000Y-120035714D01*
X130750000Y-120607143D01*
X130821429Y-120750000D01*
X130964286Y-120821429D01*
X131250000Y-120821429D01*
X131392857Y-120750000D01*
X131464286Y-120607143D01*
X131464286Y-120464286D01*
X130750000Y-120321429D01*
X133250000Y-120821429D02*
X133250000Y-119321429D01*
X133250000Y-120750000D02*
X133392857Y-120821429D01*
X133678571Y-120821429D01*
X133821428Y-120750000D01*
X133892857Y-120678571D01*
X133964286Y-120535714D01*
X133964286Y-120107143D01*
X133892857Y-119964286D01*
X133821428Y-119892857D01*
X133678571Y-119821429D01*
X133392857Y-119821429D01*
X133250000Y-119892857D01*
X135250000Y-119821429D02*
X135250000Y-120607143D01*
X135178571Y-120750000D01*
X135035714Y-120821429D01*
X134750000Y-120821429D01*
X134607143Y-120750000D01*
X135250000Y-119892857D02*
X135107143Y-119821429D01*
X134750000Y-119821429D01*
X134607143Y-119892857D01*
X134535714Y-120035714D01*
X134535714Y-120178571D01*
X134607143Y-120321429D01*
X134750000Y-120392857D01*
X135107143Y-120392857D01*
X135250000Y-120464286D01*
X135964286Y-119821429D02*
X135964286Y-120821429D01*
X135964286Y-120535714D02*
X136035714Y-120678571D01*
X136107143Y-120750000D01*
X136250000Y-120821429D01*
X136392857Y-120821429D01*
X137535714Y-119821429D02*
X137535714Y-120607143D01*
X137464285Y-120750000D01*
X137321428Y-120821429D01*
X137035714Y-120821429D01*
X136892857Y-120750000D01*
X137535714Y-119892857D02*
X137392857Y-119821429D01*
X137035714Y-119821429D01*
X136892857Y-119892857D01*
X136821428Y-120035714D01*
X136821428Y-120178571D01*
X136892857Y-120321429D01*
X137035714Y-120392857D01*
X137392857Y-120392857D01*
X137535714Y-120464286D01*
X138250000Y-119821429D02*
X138250000Y-120821429D01*
X138250000Y-120678571D02*
X138321428Y-120750000D01*
X138464286Y-120821429D01*
X138678571Y-120821429D01*
X138821428Y-120750000D01*
X138892857Y-120607143D01*
X138892857Y-119821429D01*
X138892857Y-120607143D02*
X138964286Y-120750000D01*
X139107143Y-120821429D01*
X139321428Y-120821429D01*
X139464286Y-120750000D01*
X139535714Y-120607143D01*
X139535714Y-119821429D01*
X140821428Y-119892857D02*
X140678571Y-119821429D01*
X140392857Y-119821429D01*
X140250000Y-119892857D01*
X140178571Y-120035714D01*
X140178571Y-120607143D01*
X140250000Y-120750000D01*
X140392857Y-120821429D01*
X140678571Y-120821429D01*
X140821428Y-120750000D01*
X140892857Y-120607143D01*
X140892857Y-120464286D01*
X140178571Y-120321429D01*
X141321428Y-120821429D02*
X141892857Y-120821429D01*
X141535714Y-121321429D02*
X141535714Y-120035714D01*
X141607142Y-119892857D01*
X141750000Y-119821429D01*
X141892857Y-119821429D01*
X142964285Y-119892857D02*
X142821428Y-119821429D01*
X142535714Y-119821429D01*
X142392857Y-119892857D01*
X142321428Y-120035714D01*
X142321428Y-120607143D01*
X142392857Y-120750000D01*
X142535714Y-120821429D01*
X142821428Y-120821429D01*
X142964285Y-120750000D01*
X143035714Y-120607143D01*
X143035714Y-120464286D01*
X142321428Y-120321429D01*
X143678571Y-119821429D02*
X143678571Y-120821429D01*
X143678571Y-120535714D02*
X143749999Y-120678571D01*
X143821428Y-120750000D01*
X143964285Y-120821429D01*
X144107142Y-120821429D01*
X144535713Y-119892857D02*
X144678570Y-119821429D01*
X144964285Y-119821429D01*
X145107142Y-119892857D01*
X145178570Y-120035714D01*
X145178570Y-120107143D01*
X145107142Y-120250000D01*
X144964285Y-120321429D01*
X144749999Y-120321429D01*
X144607142Y-120392857D01*
X144535713Y-120535714D01*
X144535713Y-120607143D01*
X144607142Y-120750000D01*
X144749999Y-120821429D01*
X144964285Y-120821429D01*
X145107142Y-120750000D01*
X146749999Y-120821429D02*
X147321428Y-120821429D01*
X146964285Y-119821429D02*
X146964285Y-121107143D01*
X147035713Y-121250000D01*
X147178571Y-121321429D01*
X147321428Y-121321429D01*
X148035714Y-119821429D02*
X147892856Y-119892857D01*
X147821428Y-119964286D01*
X147749999Y-120107143D01*
X147749999Y-120535714D01*
X147821428Y-120678571D01*
X147892856Y-120750000D01*
X148035714Y-120821429D01*
X148249999Y-120821429D01*
X148392856Y-120750000D01*
X148464285Y-120678571D01*
X148535714Y-120535714D01*
X148535714Y-120107143D01*
X148464285Y-119964286D01*
X148392856Y-119892857D01*
X148249999Y-119821429D01*
X148035714Y-119821429D01*
X149178571Y-119821429D02*
X149178571Y-120821429D01*
X149178571Y-120535714D02*
X149249999Y-120678571D01*
X149321428Y-120750000D01*
X149464285Y-120821429D01*
X149607142Y-120821429D01*
X151035713Y-120821429D02*
X151607142Y-120821429D01*
X151249999Y-121321429D02*
X151249999Y-120035714D01*
X151321427Y-119892857D01*
X151464285Y-119821429D01*
X151607142Y-119821429D01*
X152107142Y-119821429D02*
X152107142Y-121321429D01*
X152749999Y-119821429D02*
X152749999Y-120607143D01*
X152678570Y-120750000D01*
X152535713Y-120821429D01*
X152321428Y-120821429D01*
X152178570Y-120750000D01*
X152107142Y-120678571D01*
X154035713Y-119892857D02*
X153892856Y-119821429D01*
X153607142Y-119821429D01*
X153464285Y-119892857D01*
X153392856Y-120035714D01*
X153392856Y-120607143D01*
X153464285Y-120750000D01*
X153607142Y-120821429D01*
X153892856Y-120821429D01*
X154035713Y-120750000D01*
X154107142Y-120607143D01*
X154107142Y-120464286D01*
X153392856Y-120321429D01*
X156535713Y-119821429D02*
X156535713Y-121321429D01*
X156535713Y-119892857D02*
X156392856Y-119821429D01*
X156107142Y-119821429D01*
X155964284Y-119892857D01*
X155892856Y-119964286D01*
X155821427Y-120107143D01*
X155821427Y-120535714D01*
X155892856Y-120678571D01*
X155964284Y-120750000D01*
X156107142Y-120821429D01*
X156392856Y-120821429D01*
X156535713Y-120750000D01*
X157249999Y-119821429D02*
X157249999Y-120821429D01*
X157249999Y-121321429D02*
X157178570Y-121250000D01*
X157249999Y-121178571D01*
X157321427Y-121250000D01*
X157249999Y-121321429D01*
X157249999Y-121178571D01*
X157749999Y-120821429D02*
X158321428Y-120821429D01*
X157964285Y-119821429D02*
X157964285Y-121107143D01*
X158035713Y-121250000D01*
X158178571Y-121321429D01*
X158321428Y-121321429D01*
X158607142Y-120821429D02*
X159178571Y-120821429D01*
X158821428Y-119821429D02*
X158821428Y-121107143D01*
X158892856Y-121250000D01*
X159035714Y-121321429D01*
X159178571Y-121321429D01*
X160249999Y-119892857D02*
X160107142Y-119821429D01*
X159821428Y-119821429D01*
X159678571Y-119892857D01*
X159607142Y-120035714D01*
X159607142Y-120607143D01*
X159678571Y-120750000D01*
X159821428Y-120821429D01*
X160107142Y-120821429D01*
X160249999Y-120750000D01*
X160321428Y-120607143D01*
X160321428Y-120464286D01*
X159607142Y-120321429D01*
X160964285Y-119821429D02*
X160964285Y-120821429D01*
X160964285Y-120535714D02*
X161035713Y-120678571D01*
X161107142Y-120750000D01*
X161249999Y-120821429D01*
X161392856Y-120821429D01*
X162464284Y-119892857D02*
X162321427Y-119821429D01*
X162035713Y-119821429D01*
X161892856Y-119892857D01*
X161821427Y-120035714D01*
X161821427Y-120607143D01*
X161892856Y-120750000D01*
X162035713Y-120821429D01*
X162321427Y-120821429D01*
X162464284Y-120750000D01*
X162535713Y-120607143D01*
X162535713Y-120464286D01*
X161821427Y-120321429D01*
X163178570Y-120821429D02*
X163178570Y-119821429D01*
X163178570Y-120678571D02*
X163249998Y-120750000D01*
X163392856Y-120821429D01*
X163607141Y-120821429D01*
X163749998Y-120750000D01*
X163821427Y-120607143D01*
X163821427Y-119821429D01*
X164321427Y-120821429D02*
X164892856Y-120821429D01*
X164535713Y-121321429D02*
X164535713Y-120035714D01*
X164607141Y-119892857D01*
X164749999Y-119821429D01*
X164892856Y-119821429D01*
X166464284Y-119892857D02*
X166607141Y-119821429D01*
X166892856Y-119821429D01*
X167035713Y-119892857D01*
X167107141Y-120035714D01*
X167107141Y-120107143D01*
X167035713Y-120250000D01*
X166892856Y-120321429D01*
X166678570Y-120321429D01*
X166535713Y-120392857D01*
X166464284Y-120535714D01*
X166464284Y-120607143D01*
X166535713Y-120750000D01*
X166678570Y-120821429D01*
X166892856Y-120821429D01*
X167035713Y-120750000D01*
X168321427Y-119892857D02*
X168178570Y-119821429D01*
X167892856Y-119821429D01*
X167749999Y-119892857D01*
X167678570Y-120035714D01*
X167678570Y-120607143D01*
X167749999Y-120750000D01*
X167892856Y-120821429D01*
X168178570Y-120821429D01*
X168321427Y-120750000D01*
X168392856Y-120607143D01*
X168392856Y-120464286D01*
X167678570Y-120321429D01*
X169678570Y-119892857D02*
X169535713Y-119821429D01*
X169249999Y-119821429D01*
X169107141Y-119892857D01*
X169035713Y-119964286D01*
X168964284Y-120107143D01*
X168964284Y-120535714D01*
X169035713Y-120678571D01*
X169107141Y-120750000D01*
X169249999Y-120821429D01*
X169535713Y-120821429D01*
X169678570Y-120750000D01*
X170107141Y-120821429D02*
X170678570Y-120821429D01*
X170321427Y-121321429D02*
X170321427Y-120035714D01*
X170392855Y-119892857D01*
X170535713Y-119821429D01*
X170678570Y-119821429D01*
X171178570Y-119821429D02*
X171178570Y-120821429D01*
X171178570Y-121321429D02*
X171107141Y-121250000D01*
X171178570Y-121178571D01*
X171249998Y-121250000D01*
X171178570Y-121321429D01*
X171178570Y-121178571D01*
X172107142Y-119821429D02*
X171964284Y-119892857D01*
X171892856Y-119964286D01*
X171821427Y-120107143D01*
X171821427Y-120535714D01*
X171892856Y-120678571D01*
X171964284Y-120750000D01*
X172107142Y-120821429D01*
X172321427Y-120821429D01*
X172464284Y-120750000D01*
X172535713Y-120678571D01*
X172607142Y-120535714D01*
X172607142Y-120107143D01*
X172535713Y-119964286D01*
X172464284Y-119892857D01*
X172321427Y-119821429D01*
X172107142Y-119821429D01*
X173249999Y-120821429D02*
X173249999Y-119821429D01*
X173249999Y-120678571D02*
X173321427Y-120750000D01*
X173464285Y-120821429D01*
X173678570Y-120821429D01*
X173821427Y-120750000D01*
X173892856Y-120607143D01*
X173892856Y-119821429D01*
X174535713Y-119892857D02*
X174678570Y-119821429D01*
X174964285Y-119821429D01*
X175107142Y-119892857D01*
X175178570Y-120035714D01*
X175178570Y-120107143D01*
X175107142Y-120250000D01*
X174964285Y-120321429D01*
X174749999Y-120321429D01*
X174607142Y-120392857D01*
X174535713Y-120535714D01*
X174535713Y-120607143D01*
X174607142Y-120750000D01*
X174749999Y-120821429D01*
X174964285Y-120821429D01*
X175107142Y-120750000D01*
X141214287Y-115150000D02*
X141928573Y-115150000D01*
X141071430Y-114721429D02*
X141571430Y-116221429D01*
X142071430Y-114721429D01*
X143000001Y-116221429D02*
X143000001Y-115150000D01*
X142928573Y-114935714D01*
X142785716Y-114792857D01*
X142571430Y-114721429D01*
X142428573Y-114721429D01*
X145142858Y-116221429D02*
X145285715Y-116221429D01*
X145428572Y-116150000D01*
X145500001Y-116078571D01*
X145571430Y-115935714D01*
X145642858Y-115650000D01*
X145642858Y-115292857D01*
X145571430Y-115007143D01*
X145500001Y-114864286D01*
X145428572Y-114792857D01*
X145285715Y-114721429D01*
X145142858Y-114721429D01*
X145000001Y-114792857D01*
X144928572Y-114864286D01*
X144857144Y-115007143D01*
X144785715Y-115292857D01*
X144785715Y-115650000D01*
X144857144Y-115935714D01*
X144928572Y-116078571D01*
X145000001Y-116150000D01*
X145142858Y-116221429D01*
X146928572Y-115721429D02*
X146928572Y-114721429D01*
X146571429Y-116292857D02*
X146214286Y-115221429D01*
X147142858Y-115221429D01*
X148000000Y-116221429D02*
X148142857Y-116221429D01*
X148285714Y-116150000D01*
X148357143Y-116078571D01*
X148428572Y-115935714D01*
X148500000Y-115650000D01*
X148500000Y-115292857D01*
X148428572Y-115007143D01*
X148357143Y-114864286D01*
X148285714Y-114792857D01*
X148142857Y-114721429D01*
X148000000Y-114721429D01*
X147857143Y-114792857D01*
X147785714Y-114864286D01*
X147714286Y-115007143D01*
X147642857Y-115292857D01*
X147642857Y-115650000D01*
X147714286Y-115935714D01*
X147785714Y-116078571D01*
X147857143Y-116150000D01*
X148000000Y-116221429D01*
X149000000Y-116221429D02*
X149928571Y-116221429D01*
X149428571Y-115650000D01*
X149642857Y-115650000D01*
X149785714Y-115578571D01*
X149857143Y-115507143D01*
X149928571Y-115364286D01*
X149928571Y-115007143D01*
X149857143Y-114864286D01*
X149785714Y-114792857D01*
X149642857Y-114721429D01*
X149214285Y-114721429D01*
X149071428Y-114792857D01*
X149000000Y-114864286D01*
X151357142Y-114721429D02*
X150499999Y-114721429D01*
X150928571Y-114721429D02*
X150928571Y-116221429D01*
X150785714Y-116007143D01*
X150642856Y-115864286D01*
X150499999Y-115792857D01*
X152214285Y-115578571D02*
X152071427Y-115650000D01*
X151999999Y-115721429D01*
X151928570Y-115864286D01*
X151928570Y-115935714D01*
X151999999Y-116078571D01*
X152071427Y-116150000D01*
X152214285Y-116221429D01*
X152499999Y-116221429D01*
X152642856Y-116150000D01*
X152714285Y-116078571D01*
X152785713Y-115935714D01*
X152785713Y-115864286D01*
X152714285Y-115721429D01*
X152642856Y-115650000D01*
X152499999Y-115578571D01*
X152214285Y-115578571D01*
X152071427Y-115507143D01*
X151999999Y-115435714D01*
X151928570Y-115292857D01*
X151928570Y-115007143D01*
X151999999Y-114864286D01*
X152071427Y-114792857D01*
X152214285Y-114721429D01*
X152499999Y-114721429D01*
X152642856Y-114792857D01*
X152714285Y-114864286D01*
X152785713Y-115007143D01*
X152785713Y-115292857D01*
X152714285Y-115435714D01*
X152642856Y-115507143D01*
X152499999Y-115578571D01*
M02*
