G04 #@! TF.FileFunction,Copper,L1,Top,Signal*
%FSLAX46Y46*%
G04 Gerber Fmt 4.6, Leading zero omitted, Abs format (unit mm)*
G04 Created by KiCad (PCBNEW 4.0.7) date 03/05/18 22:52:48*
%MOMM*%
%LPD*%
G01*
G04 APERTURE LIST*
%ADD10C,0.100000*%
%ADD11R,0.508000X1.143000*%
%ADD12R,2.400000X2.400000*%
%ADD13C,2.400000*%
%ADD14R,2.500000X3.200000*%
%ADD15R,1.250000X1.500000*%
%ADD16R,1.600000X2.000000*%
%ADD17C,1.600000*%
%ADD18R,1.998980X1.998980*%
%ADD19R,1.700000X1.700000*%
%ADD20O,1.700000X1.700000*%
%ADD21C,1.998980*%
%ADD22O,1.600000X1.600000*%
%ADD23R,1.300000X1.500000*%
%ADD24R,1.500000X1.300000*%
%ADD25C,2.000000*%
%ADD26R,1.800000X1.800000*%
%ADD27C,1.800000*%
%ADD28R,1.500000X1.250000*%
%ADD29O,2.032000X2.540000*%
%ADD30C,0.600000*%
%ADD31C,0.800000*%
%ADD32C,0.400000*%
G04 APERTURE END LIST*
D10*
D11*
X123905000Y-123167000D03*
X123905000Y-117833000D03*
X122635000Y-123167000D03*
X121365000Y-123167000D03*
X120095000Y-123167000D03*
X122635000Y-117833000D03*
X121365000Y-117833000D03*
X120095000Y-117833000D03*
D12*
X178000000Y-187500000D03*
D13*
X178000000Y-182500000D03*
D12*
X178000000Y-158500000D03*
D13*
X178000000Y-153500000D03*
D14*
X186000000Y-176650000D03*
X186000000Y-172350000D03*
X186000000Y-168650000D03*
X186000000Y-164350000D03*
D15*
X177000000Y-175750000D03*
X177000000Y-173250000D03*
X177000000Y-167750000D03*
X177000000Y-165250000D03*
D16*
X181000000Y-176500000D03*
X181000000Y-172500000D03*
X181000000Y-168500000D03*
X181000000Y-164500000D03*
D17*
X125000000Y-106500000D03*
X135000000Y-106500000D03*
D10*
G36*
X125836940Y-136449450D02*
X125836940Y-132550550D01*
X129337060Y-133650370D01*
X129337060Y-135349630D01*
X125836940Y-136449450D01*
X125836940Y-136449450D01*
G37*
G36*
X134163060Y-132550550D02*
X134163060Y-136449450D01*
X130662940Y-135349630D01*
X130662940Y-133650370D01*
X134163060Y-132550550D01*
X134163060Y-132550550D01*
G37*
D18*
X124498360Y-134500000D03*
X135501640Y-134500000D03*
D17*
X125000000Y-112500000D03*
X135000000Y-112500000D03*
D10*
G36*
X134163060Y-126550550D02*
X134163060Y-130449450D01*
X130662940Y-129349630D01*
X130662940Y-127650370D01*
X134163060Y-126550550D01*
X134163060Y-126550550D01*
G37*
G36*
X125836940Y-130449450D02*
X125836940Y-126550550D01*
X129337060Y-127650370D01*
X129337060Y-129349630D01*
X125836940Y-130449450D01*
X125836940Y-130449450D01*
G37*
D18*
X135501640Y-128500000D03*
X124498360Y-128500000D03*
D19*
X100000000Y-192500000D03*
D20*
X102540000Y-192500000D03*
D19*
X100000000Y-148500000D03*
D20*
X102540000Y-148500000D03*
D19*
X108000000Y-192500000D03*
D20*
X110540000Y-192500000D03*
D19*
X108000000Y-148500000D03*
D20*
X110540000Y-148500000D03*
D21*
X192000000Y-170500000D03*
X192000000Y-174000120D03*
X192000000Y-166999880D03*
D19*
X115000000Y-192500000D03*
D20*
X117540000Y-192500000D03*
D19*
X115000000Y-148500000D03*
D20*
X117540000Y-148500000D03*
D19*
X135000000Y-192500000D03*
D20*
X137540000Y-192500000D03*
D19*
X135000000Y-148500000D03*
D20*
X137540000Y-148500000D03*
D19*
X100000000Y-98500000D03*
D20*
X102540000Y-98500000D03*
D19*
X100000000Y-142500000D03*
D20*
X102540000Y-142500000D03*
D19*
X108000000Y-98500000D03*
D20*
X110540000Y-98500000D03*
D19*
X108000000Y-142500000D03*
D20*
X110540000Y-142500000D03*
D19*
X115000000Y-98500000D03*
D20*
X117540000Y-98500000D03*
D19*
X115000000Y-142500000D03*
D20*
X117540000Y-142500000D03*
D19*
X135000000Y-98500000D03*
D20*
X137540000Y-98500000D03*
D19*
X135000000Y-142500000D03*
D20*
X137540000Y-142500000D03*
D17*
X105000000Y-176500000D03*
D22*
X105000000Y-189200000D03*
D23*
X100000000Y-175650000D03*
X100000000Y-178350000D03*
D17*
X105000000Y-164500000D03*
D22*
X105000000Y-151800000D03*
D23*
X100000000Y-165450000D03*
X100000000Y-162750000D03*
D17*
X123000000Y-176500000D03*
D22*
X123000000Y-189200000D03*
D24*
X112650000Y-176500000D03*
X115350000Y-176500000D03*
X120350000Y-173500000D03*
X117650000Y-173500000D03*
D17*
X123000000Y-164500000D03*
D22*
X123000000Y-151800000D03*
D24*
X112650000Y-164500000D03*
X115350000Y-164500000D03*
X120350000Y-167500000D03*
X117650000Y-167500000D03*
D17*
X109000000Y-176500000D03*
D22*
X109000000Y-189200000D03*
D17*
X109000000Y-164500000D03*
D22*
X109000000Y-151800000D03*
D17*
X119000000Y-176500000D03*
D22*
X119000000Y-189200000D03*
D17*
X119000000Y-164500000D03*
D22*
X119000000Y-151800000D03*
D10*
G36*
X129801120Y-177336940D02*
X132198880Y-177336940D01*
X131800100Y-180837060D01*
X130199900Y-180837060D01*
X129801120Y-177336940D01*
X129801120Y-177336940D01*
G37*
G36*
X132198880Y-185663060D02*
X129801120Y-185663060D01*
X130199900Y-182162940D01*
X131800100Y-182162940D01*
X132198880Y-185663060D01*
X132198880Y-185663060D01*
G37*
D18*
X131000000Y-176498740D03*
X131000000Y-186501260D03*
D10*
G36*
X129801120Y-155336940D02*
X132198880Y-155336940D01*
X131800100Y-158837060D01*
X130199900Y-158837060D01*
X129801120Y-155336940D01*
X129801120Y-155336940D01*
G37*
G36*
X132198880Y-163663060D02*
X129801120Y-163663060D01*
X130199900Y-160162940D01*
X131800100Y-160162940D01*
X132198880Y-163663060D01*
X132198880Y-163663060D01*
G37*
D18*
X131000000Y-154498740D03*
X131000000Y-164501260D03*
D24*
X135650000Y-176500000D03*
X138350000Y-176500000D03*
X135650000Y-164500000D03*
X138350000Y-164500000D03*
D17*
X103000000Y-114200000D03*
D22*
X103000000Y-101500000D03*
D23*
X100000000Y-104850000D03*
X100000000Y-102150000D03*
D17*
X103000000Y-126800000D03*
D22*
X103000000Y-139500000D03*
D23*
X100000000Y-136150000D03*
X100000000Y-138850000D03*
D17*
X107000000Y-101500000D03*
D22*
X107000000Y-114200000D03*
D24*
X113350000Y-114500000D03*
X110650000Y-114500000D03*
X117350000Y-119500000D03*
X114650000Y-119500000D03*
D17*
X107000000Y-139500000D03*
D22*
X107000000Y-126800000D03*
D24*
X113350000Y-126500000D03*
X110650000Y-126500000D03*
X117350000Y-122500000D03*
X114650000Y-122500000D03*
X117350000Y-117500000D03*
X114650000Y-117500000D03*
X117350000Y-124500000D03*
X114650000Y-124500000D03*
D17*
X117000000Y-114500000D03*
D22*
X117000000Y-101800000D03*
D17*
X117000000Y-139500000D03*
D22*
X117000000Y-126800000D03*
D10*
G36*
X130163060Y-97301120D02*
X130163060Y-99698880D01*
X126662940Y-99300100D01*
X126662940Y-97699900D01*
X130163060Y-97301120D01*
X130163060Y-97301120D01*
G37*
G36*
X121836940Y-99698880D02*
X121836940Y-97301120D01*
X125337060Y-97699900D01*
X125337060Y-99300100D01*
X121836940Y-99698880D01*
X121836940Y-99698880D01*
G37*
D18*
X131001260Y-98500000D03*
X120998740Y-98500000D03*
D10*
G36*
X130163060Y-141301120D02*
X130163060Y-143698880D01*
X126662940Y-143300100D01*
X126662940Y-141699900D01*
X130163060Y-141301120D01*
X130163060Y-141301120D01*
G37*
G36*
X121836940Y-143698880D02*
X121836940Y-141301120D01*
X125337060Y-141699900D01*
X125337060Y-143300100D01*
X121836940Y-143698880D01*
X121836940Y-143698880D01*
G37*
D18*
X131001260Y-142500000D03*
X120998740Y-142500000D03*
D17*
X121000000Y-114500000D03*
D22*
X121000000Y-101800000D03*
D17*
X121000000Y-139500000D03*
D22*
X121000000Y-126800000D03*
D11*
X111095000Y-167833000D03*
X111095000Y-173167000D03*
X112365000Y-167833000D03*
X113635000Y-167833000D03*
X114905000Y-167833000D03*
X112365000Y-173167000D03*
X113635000Y-173167000D03*
X114905000Y-173167000D03*
X123095000Y-167833000D03*
X123095000Y-173167000D03*
X124365000Y-167833000D03*
X125635000Y-167833000D03*
X126905000Y-167833000D03*
X124365000Y-173167000D03*
X125635000Y-173167000D03*
X126905000Y-173167000D03*
X129095000Y-167833000D03*
X129095000Y-173167000D03*
X130365000Y-167833000D03*
X131635000Y-167833000D03*
X132905000Y-167833000D03*
X130365000Y-173167000D03*
X131635000Y-173167000D03*
X132905000Y-173167000D03*
X137095000Y-167833000D03*
X137095000Y-173167000D03*
X138365000Y-167833000D03*
X139635000Y-167833000D03*
X140905000Y-167833000D03*
X138365000Y-173167000D03*
X139635000Y-173167000D03*
X140905000Y-173167000D03*
X111905000Y-123167000D03*
X111905000Y-117833000D03*
X110635000Y-123167000D03*
X109365000Y-123167000D03*
X108095000Y-123167000D03*
X110635000Y-117833000D03*
X109365000Y-117833000D03*
X108095000Y-117833000D03*
X131905000Y-123167000D03*
X131905000Y-117833000D03*
X130635000Y-123167000D03*
X129365000Y-123167000D03*
X128095000Y-123167000D03*
X130635000Y-117833000D03*
X129365000Y-117833000D03*
X128095000Y-117833000D03*
X139905000Y-123167000D03*
X139905000Y-117833000D03*
X138635000Y-123167000D03*
X137365000Y-123167000D03*
X136095000Y-123167000D03*
X138635000Y-117833000D03*
X137365000Y-117833000D03*
X136095000Y-117833000D03*
D12*
X180000000Y-130500000D03*
D13*
X180000000Y-125500000D03*
D12*
X180000000Y-115500000D03*
D13*
X180000000Y-110500000D03*
D14*
X169000000Y-134650000D03*
X169000000Y-130350000D03*
X169000000Y-109650000D03*
X169000000Y-105350000D03*
D15*
X161000000Y-133750000D03*
X161000000Y-131250000D03*
X161000000Y-108750000D03*
X161000000Y-106250000D03*
D16*
X165000000Y-134500000D03*
X165000000Y-130500000D03*
X165000000Y-109500000D03*
X165000000Y-105500000D03*
D21*
X192000000Y-120500000D03*
X192000000Y-124000120D03*
X192000000Y-116999880D03*
D25*
X185000000Y-140500000D03*
X179920000Y-140490000D03*
X186500000Y-99500000D03*
X181420000Y-99490000D03*
D26*
X175000000Y-99500000D03*
D27*
X175000000Y-102040000D03*
D17*
X171000000Y-125500000D03*
D22*
X171000000Y-115340000D03*
D15*
X152000000Y-169250000D03*
X152000000Y-171750000D03*
D28*
X120250000Y-170500000D03*
X117750000Y-170500000D03*
D15*
X109000000Y-169250000D03*
X109000000Y-171750000D03*
X143000000Y-169250000D03*
X143000000Y-171750000D03*
X126000000Y-121750000D03*
X126000000Y-119250000D03*
X142000000Y-121750000D03*
X142000000Y-119250000D03*
X134000000Y-121750000D03*
X134000000Y-119250000D03*
X106000000Y-121750000D03*
X106000000Y-119250000D03*
D25*
X100000000Y-181100000D03*
X100000000Y-188600000D03*
X100000000Y-159900000D03*
X100000000Y-152400000D03*
X114000000Y-188700000D03*
X114000000Y-181200000D03*
X114100000Y-152400000D03*
X114100000Y-159900000D03*
D10*
G36*
X128198880Y-185663060D02*
X125801120Y-185663060D01*
X126199900Y-182162940D01*
X127800100Y-182162940D01*
X128198880Y-185663060D01*
X128198880Y-185663060D01*
G37*
G36*
X125801120Y-177336940D02*
X128198880Y-177336940D01*
X127800100Y-180837060D01*
X126199900Y-180837060D01*
X125801120Y-177336940D01*
X125801120Y-177336940D01*
G37*
D18*
X127000000Y-186501260D03*
X127000000Y-176498740D03*
D10*
G36*
X128198880Y-163663060D02*
X125801120Y-163663060D01*
X126199900Y-160162940D01*
X127800100Y-160162940D01*
X128198880Y-163663060D01*
X128198880Y-163663060D01*
G37*
G36*
X125801120Y-155336940D02*
X128198880Y-155336940D01*
X127800100Y-158837060D01*
X126199900Y-158837060D01*
X125801120Y-155336940D01*
X125801120Y-155336940D01*
G37*
D18*
X127000000Y-164501260D03*
X127000000Y-154498740D03*
D25*
X150000000Y-181500000D03*
X150000000Y-189000000D03*
X150000000Y-159500000D03*
X150000000Y-152000000D03*
D19*
X149000000Y-192500000D03*
D20*
X151540000Y-192500000D03*
D19*
X149000000Y-148500000D03*
D20*
X151540000Y-148500000D03*
D19*
X157000000Y-192500000D03*
D20*
X159540000Y-192500000D03*
D19*
X157000000Y-148500000D03*
D20*
X159540000Y-148500000D03*
D23*
X150000000Y-175150000D03*
X150000000Y-177850000D03*
X150000000Y-165850000D03*
X150000000Y-163150000D03*
X153000000Y-175150000D03*
X153000000Y-177850000D03*
X153000000Y-165850000D03*
X153000000Y-163150000D03*
D11*
X155095000Y-167833000D03*
X155095000Y-173167000D03*
X156365000Y-167833000D03*
X157635000Y-167833000D03*
X158905000Y-167833000D03*
X156365000Y-173167000D03*
X157635000Y-173167000D03*
X158905000Y-173167000D03*
D26*
X169000000Y-164500000D03*
D27*
X169000000Y-167040000D03*
D25*
X192000000Y-181500000D03*
X186920000Y-181490000D03*
X192000000Y-159500000D03*
X186920000Y-159490000D03*
D17*
X169000000Y-183500000D03*
D22*
X169000000Y-173340000D03*
D21*
X162000000Y-120500000D03*
X162000000Y-116999880D03*
X162000000Y-124000120D03*
D29*
X166000000Y-140500000D03*
X163460000Y-140500000D03*
X168540000Y-140500000D03*
X166000000Y-100500000D03*
X168540000Y-100500000D03*
X163460000Y-100500000D03*
D17*
X143000000Y-150500000D03*
D22*
X143000000Y-140340000D03*
D30*
X166000000Y-171000000D03*
X164250000Y-169250000D03*
X158400000Y-176300000D03*
X159540000Y-165560000D03*
X141000000Y-165500000D03*
X177000000Y-170500000D03*
X125185002Y-175700000D03*
X127000000Y-166500000D03*
X133600000Y-166500000D03*
X132200000Y-174700000D03*
X140200000Y-175100000D03*
X120400000Y-124500000D03*
X121700000Y-118900000D03*
X129200000Y-116500000D03*
X128300000Y-124400000D03*
X136900000Y-116100000D03*
X135600000Y-123900000D03*
X117600000Y-182100000D03*
X122000000Y-180700000D03*
X124000000Y-180500000D03*
X124600000Y-158100000D03*
X124600000Y-156300000D03*
X122200000Y-154500000D03*
X124000000Y-160300000D03*
X118800000Y-178500000D03*
X124000000Y-181700000D03*
X128200000Y-174100000D03*
X128600000Y-175700000D03*
X122000000Y-161300000D03*
X107000000Y-175900000D03*
X107000000Y-173500000D03*
X112600000Y-162500000D03*
X112400000Y-159100000D03*
X115800000Y-174900000D03*
X121800000Y-177700000D03*
X112000000Y-174300000D03*
X116200000Y-173900000D03*
X114000000Y-166300000D03*
X109600000Y-166900000D03*
X136000000Y-178500000D03*
X134000000Y-178500000D03*
X136000000Y-158500000D03*
X134000000Y-158500000D03*
X110200000Y-124700000D03*
X112900000Y-124500000D03*
X113100000Y-121300000D03*
X123400000Y-121500000D03*
X119100000Y-119900000D03*
X110000000Y-119500000D03*
X122800000Y-104600000D03*
X124500000Y-104800000D03*
X127500000Y-106700000D03*
X129400000Y-106500000D03*
X122800000Y-110800000D03*
X127500000Y-111000000D03*
X118200000Y-134400000D03*
X120100000Y-134300000D03*
X120100000Y-135800000D03*
X118200000Y-135800000D03*
X132700000Y-130900000D03*
X133700000Y-124600000D03*
X124600000Y-116300000D03*
X122400000Y-116600000D03*
X122800000Y-114500000D03*
X125900000Y-114300000D03*
X129800000Y-112700000D03*
X132700000Y-112500000D03*
X130900000Y-126300000D03*
X128700000Y-126200000D03*
X126800000Y-124300000D03*
X124600000Y-124400000D03*
X121400000Y-124200000D03*
X121300000Y-121100000D03*
X122100000Y-133200000D03*
X157000000Y-178300000D03*
X155200000Y-176700000D03*
X156400000Y-162100000D03*
X156400000Y-165100000D03*
D31*
X155095000Y-167833000D02*
X155095000Y-169095000D01*
X169000000Y-175750000D02*
X177000000Y-175750000D01*
X167500000Y-174250000D02*
X169000000Y-175750000D01*
X167500000Y-172500000D02*
X167500000Y-174250000D01*
X166000000Y-171000000D02*
X167500000Y-172500000D01*
X159250000Y-169250000D02*
X164250000Y-169250000D01*
X159000000Y-169500000D02*
X159250000Y-169250000D01*
X155500000Y-169500000D02*
X159000000Y-169500000D01*
X155095000Y-169095000D02*
X155500000Y-169500000D01*
X178000000Y-187500000D02*
X179000000Y-187500000D01*
X179000000Y-187500000D02*
X184000000Y-182500000D01*
X184000000Y-178650000D02*
X186000000Y-176650000D01*
X184000000Y-182500000D02*
X184000000Y-178650000D01*
X186920000Y-181490000D02*
X186920000Y-186580000D01*
X186000000Y-187500000D02*
X178000000Y-187500000D01*
X186920000Y-186580000D02*
X186000000Y-187500000D01*
X186000000Y-176650000D02*
X181150000Y-176650000D01*
X181150000Y-176650000D02*
X181000000Y-176500000D01*
X181000000Y-176500000D02*
X177750000Y-176500000D01*
X177750000Y-176500000D02*
X177000000Y-175750000D01*
X177000000Y-175750000D02*
X176750000Y-175750000D01*
X176750000Y-175750000D02*
X169000000Y-183500000D01*
X152000000Y-169250000D02*
X143000000Y-169250000D01*
X155095000Y-167833000D02*
X155095000Y-169005000D01*
X154850000Y-169250000D02*
X152000000Y-169250000D01*
X155095000Y-169005000D02*
X154850000Y-169250000D01*
X120250000Y-170500000D02*
X120250000Y-170150000D01*
X120250000Y-170150000D02*
X119200000Y-169100000D01*
X109850000Y-170100000D02*
X109000000Y-169250000D01*
X115800000Y-170100000D02*
X109850000Y-170100000D01*
X116800000Y-169100000D02*
X115800000Y-170100000D01*
X119200000Y-169100000D02*
X116800000Y-169100000D01*
X137095000Y-167833000D02*
X137095000Y-170500000D01*
X137095000Y-170500000D02*
X137000000Y-170500000D01*
X129095000Y-167833000D02*
X129095000Y-170500000D01*
X129095000Y-170500000D02*
X129000000Y-170500000D01*
X120250000Y-170500000D02*
X129000000Y-170500000D01*
X129000000Y-170500000D02*
X137000000Y-170500000D01*
X137000000Y-170500000D02*
X141750000Y-170500000D01*
X141750000Y-170500000D02*
X143000000Y-169250000D01*
X120250000Y-170500000D02*
X120428000Y-170500000D01*
X120428000Y-170500000D02*
X123095000Y-167833000D01*
X111095000Y-167833000D02*
X110417000Y-167833000D01*
X110417000Y-167833000D02*
X109000000Y-169250000D01*
X143000000Y-140340000D02*
X138160000Y-140340000D01*
X137540000Y-140960000D02*
X137540000Y-142500000D01*
X138160000Y-140340000D02*
X137540000Y-140960000D01*
X137540000Y-148500000D02*
X137540000Y-150040000D01*
X138000000Y-150500000D02*
X143000000Y-150500000D01*
X137540000Y-150040000D02*
X138000000Y-150500000D01*
X157635000Y-173167000D02*
X157635000Y-175535000D01*
X157635000Y-175535000D02*
X158400000Y-176300000D01*
X158905000Y-167833000D02*
X158905000Y-166195000D01*
X158905000Y-166195000D02*
X159540000Y-165560000D01*
X140905000Y-167833000D02*
X140905000Y-165595000D01*
X140905000Y-165595000D02*
X141000000Y-165500000D01*
X159540000Y-165560000D02*
X159540000Y-148500000D01*
X158905000Y-166195000D02*
X159540000Y-165560000D01*
X159540000Y-177440000D02*
X159540000Y-192500000D01*
X157635000Y-175535000D02*
X159540000Y-177440000D01*
X177000000Y-167750000D02*
X177000000Y-170500000D01*
X177000000Y-173250000D02*
X177000000Y-167750000D01*
X186000000Y-168650000D02*
X181150000Y-168650000D01*
X181150000Y-168650000D02*
X181000000Y-168500000D01*
X186000000Y-172350000D02*
X181150000Y-172350000D01*
X181150000Y-172350000D02*
X181000000Y-172500000D01*
X192000000Y-170500000D02*
X187850000Y-170500000D01*
X187850000Y-170500000D02*
X186000000Y-172350000D01*
X187850000Y-170500000D02*
X186000000Y-168650000D01*
X177000000Y-167750000D02*
X180250000Y-167750000D01*
X180250000Y-167750000D02*
X181000000Y-168500000D01*
X177000000Y-173250000D02*
X180250000Y-173250000D01*
X180250000Y-173250000D02*
X181000000Y-172500000D01*
X125635000Y-173167000D02*
X125635000Y-174665000D01*
X125185002Y-175114998D02*
X125185002Y-175700000D01*
X125635000Y-174665000D02*
X125185002Y-175114998D01*
X126905000Y-167833000D02*
X126905000Y-166595000D01*
X126905000Y-166595000D02*
X127000000Y-166500000D01*
X132905000Y-167833000D02*
X132905000Y-167195000D01*
X132905000Y-167195000D02*
X133600000Y-166500000D01*
X131635000Y-173167000D02*
X131635000Y-174135000D01*
X131635000Y-174135000D02*
X132200000Y-174700000D01*
X139635000Y-173167000D02*
X139635000Y-174535000D01*
X139635000Y-174535000D02*
X140200000Y-175100000D01*
X120095000Y-123167000D02*
X120095000Y-124195000D01*
X120095000Y-124195000D02*
X120400000Y-124500000D01*
X121365000Y-117833000D02*
X121365000Y-118565000D01*
X121365000Y-118565000D02*
X121700000Y-118900000D01*
X129365000Y-117833000D02*
X129365000Y-116665000D01*
X129365000Y-116665000D02*
X129200000Y-116500000D01*
X128095000Y-123167000D02*
X128095000Y-124195000D01*
X128095000Y-124195000D02*
X128300000Y-124400000D01*
X137365000Y-117833000D02*
X137365000Y-116565000D01*
X137365000Y-116565000D02*
X136900000Y-116100000D01*
X136095000Y-123167000D02*
X136095000Y-123405000D01*
X136095000Y-123405000D02*
X135600000Y-123900000D01*
X169000000Y-130350000D02*
X165150000Y-130350000D01*
X165150000Y-130350000D02*
X165000000Y-130500000D01*
X165000000Y-130500000D02*
X161750000Y-130500000D01*
X161750000Y-130500000D02*
X161000000Y-131250000D01*
X165000000Y-130500000D02*
X165000000Y-123500000D01*
X165000000Y-123500000D02*
X162000000Y-120500000D01*
X165000000Y-109500000D02*
X165000000Y-117500000D01*
X165000000Y-117500000D02*
X162000000Y-120500000D01*
X165000000Y-109500000D02*
X168850000Y-109500000D01*
X168850000Y-109500000D02*
X169000000Y-109650000D01*
X161000000Y-108750000D02*
X164250000Y-108750000D01*
X164250000Y-108750000D02*
X165000000Y-109500000D01*
X186920000Y-159490000D02*
X186920000Y-154420000D01*
X186000000Y-153500000D02*
X178000000Y-153500000D01*
X186920000Y-154420000D02*
X186000000Y-153500000D01*
X178000000Y-153500000D02*
X179000000Y-153500000D01*
X179000000Y-153500000D02*
X184000000Y-158500000D01*
X184000000Y-162350000D02*
X186000000Y-164350000D01*
X184000000Y-158500000D02*
X184000000Y-162350000D01*
X128000000Y-171750000D02*
X128000000Y-172072000D01*
X128000000Y-172072000D02*
X126905000Y-173167000D01*
X177000000Y-165250000D02*
X174550000Y-165250000D01*
X173800000Y-164500000D02*
X169000000Y-164500000D01*
X174550000Y-165250000D02*
X173800000Y-164500000D01*
X181000000Y-164500000D02*
X177750000Y-164500000D01*
X177750000Y-164500000D02*
X177000000Y-165250000D01*
X186000000Y-164350000D02*
X181150000Y-164350000D01*
X181150000Y-164350000D02*
X181000000Y-164500000D01*
X158905000Y-173167000D02*
X161933000Y-173167000D01*
X161933000Y-173167000D02*
X166400000Y-168700000D01*
X166400000Y-168700000D02*
X166400000Y-167100000D01*
X166400000Y-167100000D02*
X169000000Y-164500000D01*
X152000000Y-171750000D02*
X143000000Y-171750000D01*
X158905000Y-173167000D02*
X158905000Y-171605000D01*
X152650000Y-171100000D02*
X152000000Y-171750000D01*
X158400000Y-171100000D02*
X152650000Y-171100000D01*
X158905000Y-171605000D02*
X158400000Y-171100000D01*
X143000000Y-171750000D02*
X142322000Y-171750000D01*
X142322000Y-171750000D02*
X140905000Y-173167000D01*
X133000000Y-171750000D02*
X133000000Y-173072000D01*
X133000000Y-173072000D02*
X132905000Y-173167000D01*
X143000000Y-171750000D02*
X133000000Y-171750000D01*
X133000000Y-171750000D02*
X128000000Y-171750000D01*
X128000000Y-171750000D02*
X119000000Y-171750000D01*
X119000000Y-171750000D02*
X117750000Y-170500000D01*
X117750000Y-170500000D02*
X117572000Y-170500000D01*
X117572000Y-170500000D02*
X114905000Y-173167000D01*
X114905000Y-173167000D02*
X114905000Y-172405000D01*
X114250000Y-171750000D02*
X109000000Y-171750000D01*
X114905000Y-172405000D02*
X114250000Y-171750000D01*
D32*
X115000000Y-192500000D02*
X115000000Y-189900000D01*
X115700000Y-189200000D02*
X119000000Y-189200000D01*
X115000000Y-189900000D02*
X115700000Y-189200000D01*
X115000000Y-192500000D02*
X115000000Y-189700000D01*
X115000000Y-189700000D02*
X114000000Y-188700000D01*
X123000000Y-176500000D02*
X121800000Y-176500000D01*
X114000000Y-184300000D02*
X114000000Y-188700000D01*
X121800000Y-176500000D02*
X114000000Y-184300000D01*
X123095000Y-173167000D02*
X123095000Y-176405000D01*
X123095000Y-176405000D02*
X123000000Y-176500000D01*
X124365000Y-173167000D02*
X124365000Y-180135000D01*
X120600000Y-182100000D02*
X117600000Y-182100000D01*
X122000000Y-180700000D02*
X120600000Y-182100000D01*
X124365000Y-180135000D02*
X124000000Y-180500000D01*
X109000000Y-176500000D02*
X109000000Y-180100000D01*
X110100000Y-181200000D02*
X114000000Y-181200000D01*
X109000000Y-180100000D02*
X110100000Y-181200000D01*
X123000000Y-164500000D02*
X123800000Y-164500000D01*
X123800000Y-164500000D02*
X124365000Y-165065000D01*
X124365000Y-165065000D02*
X124365000Y-167833000D01*
X119000000Y-151800000D02*
X120500000Y-151800000D01*
X123000000Y-159700000D02*
X123000000Y-164500000D01*
X124600000Y-158100000D02*
X123000000Y-159700000D01*
X124600000Y-150300000D02*
X124600000Y-156300000D01*
X122000000Y-150300000D02*
X124600000Y-150300000D01*
X120500000Y-151800000D02*
X122000000Y-150300000D01*
X115000000Y-148500000D02*
X115000000Y-151500000D01*
X115000000Y-151500000D02*
X114100000Y-152400000D01*
X119000000Y-151800000D02*
X114700000Y-151800000D01*
X114700000Y-151800000D02*
X114100000Y-152400000D01*
X119400000Y-155300000D02*
X114800000Y-159900000D01*
X121400000Y-155300000D02*
X119400000Y-155300000D01*
X122200000Y-154500000D02*
X121400000Y-155300000D01*
X114800000Y-159900000D02*
X114100000Y-159900000D01*
X125635000Y-167833000D02*
X125635000Y-166335000D01*
X125635000Y-166335000D02*
X125200000Y-165900000D01*
X125200000Y-165900000D02*
X125200000Y-161500000D01*
X125200000Y-161500000D02*
X124000000Y-160300000D01*
X109000000Y-164500000D02*
X109000000Y-160500000D01*
X109600000Y-159900000D02*
X114100000Y-159900000D01*
X109000000Y-160500000D02*
X109600000Y-159900000D01*
X120350000Y-173500000D02*
X119800000Y-173500000D01*
X119800000Y-173500000D02*
X117600000Y-175700000D01*
X117600000Y-175700000D02*
X117600000Y-177300000D01*
X117600000Y-177300000D02*
X118800000Y-178500000D01*
X124000000Y-181700000D02*
X126213000Y-183913000D01*
X126213000Y-183913000D02*
X127000000Y-183913000D01*
X129095000Y-173167000D02*
X129095000Y-173205000D01*
X129095000Y-173205000D02*
X128200000Y-174100000D01*
X128600000Y-175700000D02*
X128800000Y-175900000D01*
X128800000Y-175900000D02*
X128800000Y-183913000D01*
X131000000Y-186501260D02*
X131000000Y-183300000D01*
X127000000Y-186501260D02*
X127000000Y-183913000D01*
X131000000Y-186501260D02*
X131000000Y-183913000D01*
X131000000Y-183913000D02*
X128800000Y-183913000D01*
X128800000Y-183913000D02*
X127000000Y-183913000D01*
X127000000Y-179087000D02*
X127000000Y-176498740D01*
X130365000Y-173167000D02*
X130365000Y-174135000D01*
X127000000Y-174900000D02*
X127000000Y-176898740D01*
X129600000Y-174900000D02*
X127000000Y-174900000D01*
X130365000Y-174135000D02*
X129600000Y-174900000D01*
X120350000Y-162950000D02*
X120350000Y-167500000D01*
X122000000Y-161300000D02*
X120350000Y-162950000D01*
X131000000Y-161913000D02*
X131000000Y-164501260D01*
X131000000Y-164501260D02*
X127000000Y-164501260D01*
X127000000Y-164501260D02*
X127000000Y-161913000D01*
X127000000Y-164501260D02*
X131000000Y-164501260D01*
X130365000Y-167833000D02*
X130365000Y-165136260D01*
X130365000Y-165136260D02*
X131000000Y-164501260D01*
X127000000Y-157087000D02*
X120013000Y-157087000D01*
X119000000Y-158100000D02*
X119000000Y-164500000D01*
X120013000Y-157087000D02*
X119000000Y-158100000D01*
X127000000Y-154498740D02*
X127000000Y-157087000D01*
X131635000Y-167833000D02*
X131635000Y-166865000D01*
X129000000Y-159500000D02*
X127000000Y-157500000D01*
X133000000Y-159500000D02*
X129000000Y-159500000D01*
X133000000Y-165500000D02*
X133000000Y-159500000D01*
X131635000Y-166865000D02*
X133000000Y-165500000D01*
X127000000Y-157500000D02*
X127000000Y-157087000D01*
D31*
X168540000Y-140500000D02*
X170000000Y-140500000D01*
X170000000Y-140500000D02*
X180000000Y-130500000D01*
X179920000Y-140490000D02*
X179920000Y-130580000D01*
X179920000Y-130580000D02*
X180000000Y-130500000D01*
X180000000Y-130500000D02*
X176000000Y-130500000D01*
X176000000Y-130500000D02*
X171000000Y-125500000D01*
X180000000Y-110500000D02*
X180000000Y-110000000D01*
X180000000Y-110000000D02*
X177500000Y-107500000D01*
X177500000Y-102000000D02*
X175000000Y-99500000D01*
X177500000Y-107500000D02*
X177500000Y-102000000D01*
X181420000Y-99490000D02*
X181420000Y-109080000D01*
X181420000Y-109080000D02*
X180000000Y-110500000D01*
X175000000Y-99500000D02*
X173000000Y-99500000D01*
X166000000Y-98500000D02*
X166000000Y-100500000D01*
X167000000Y-97500000D02*
X166000000Y-98500000D01*
X171000000Y-97500000D02*
X167000000Y-97500000D01*
X173000000Y-99500000D02*
X171000000Y-97500000D01*
D32*
X111095000Y-173167000D02*
X107333000Y-173167000D01*
X107000000Y-187500000D02*
X108700000Y-189200000D01*
X107000000Y-175900000D02*
X107000000Y-187500000D01*
X107333000Y-173167000D02*
X107000000Y-173500000D01*
X108700000Y-189200000D02*
X109000000Y-189200000D01*
X111095000Y-173167000D02*
X110333000Y-173167000D01*
X110333000Y-173167000D02*
X110200000Y-173300000D01*
X109000000Y-189200000D02*
X109000000Y-188300000D01*
X115600000Y-179450000D02*
X112650000Y-176500000D01*
X115600000Y-181700000D02*
X115600000Y-179450000D01*
X109000000Y-188300000D02*
X115600000Y-181700000D01*
X108000000Y-192500000D02*
X108000000Y-190200000D01*
X108000000Y-190200000D02*
X109000000Y-189200000D01*
X111300000Y-151800000D02*
X109000000Y-151800000D01*
X112000000Y-152500000D02*
X111300000Y-151800000D01*
X112000000Y-158700000D02*
X112000000Y-152500000D01*
X112400000Y-159100000D02*
X112000000Y-158700000D01*
X112650000Y-164500000D02*
X112650000Y-162750000D01*
X112650000Y-162750000D02*
X112600000Y-162500000D01*
X108916364Y-151754546D02*
X109151021Y-151651021D01*
X109151021Y-151651021D02*
X108000000Y-150800000D01*
X108000000Y-150800000D02*
X108000000Y-148500000D01*
X112365000Y-167833000D02*
X112365000Y-164785000D01*
X112365000Y-164785000D02*
X112650000Y-164500000D01*
X135650000Y-176500000D02*
X135650000Y-174612000D01*
X135650000Y-174612000D02*
X137095000Y-173167000D01*
X135000000Y-192500000D02*
X135000000Y-177150000D01*
X135000000Y-177150000D02*
X135650000Y-176500000D01*
X135650000Y-164500000D02*
X135650000Y-165150000D01*
X135650000Y-165150000D02*
X137000000Y-166500000D01*
X138365000Y-166865000D02*
X138365000Y-167833000D01*
X138000000Y-166500000D02*
X138365000Y-166865000D01*
X137000000Y-166500000D02*
X138000000Y-166500000D01*
X135000000Y-148500000D02*
X135000000Y-163850000D01*
X135000000Y-163850000D02*
X135650000Y-164500000D01*
X100000000Y-98500000D02*
X100000000Y-102150000D01*
X100000000Y-142500000D02*
X100000000Y-138850000D01*
X113350000Y-114500000D02*
X113350000Y-103850000D01*
X113350000Y-103850000D02*
X108000000Y-98500000D01*
X113350000Y-114500000D02*
X113350000Y-105450000D01*
X113350000Y-105450000D02*
X117000000Y-101800000D01*
X111905000Y-117833000D02*
X111905000Y-115945000D01*
X111905000Y-115945000D02*
X113350000Y-114500000D01*
X108000000Y-142500000D02*
X108000000Y-141000000D01*
X113350000Y-135650000D02*
X113350000Y-126500000D01*
X108000000Y-141000000D02*
X113350000Y-135650000D01*
X117000000Y-126800000D02*
X113650000Y-126800000D01*
X113650000Y-126800000D02*
X113350000Y-126500000D01*
X110635000Y-123167000D02*
X110635000Y-124035000D01*
X111950000Y-125100000D02*
X113350000Y-126500000D01*
X111700000Y-125100000D02*
X111950000Y-125100000D01*
X110635000Y-124035000D02*
X111700000Y-125100000D01*
X123000000Y-189200000D02*
X123000000Y-178900000D01*
X114800000Y-174900000D02*
X113635000Y-173735000D01*
X115800000Y-174900000D02*
X114800000Y-174900000D01*
X123000000Y-178900000D02*
X121800000Y-177700000D01*
X113635000Y-173735000D02*
X113635000Y-173167000D01*
X113635000Y-173167000D02*
X113635000Y-173865000D01*
X106400000Y-175100000D02*
X105000000Y-176500000D01*
X112400000Y-175100000D02*
X106400000Y-175100000D01*
X113635000Y-173865000D02*
X112400000Y-175100000D01*
X112365000Y-173167000D02*
X112365000Y-173935000D01*
X112365000Y-173935000D02*
X112000000Y-174300000D01*
X112000000Y-174300000D02*
X101350000Y-174300000D01*
X101350000Y-174300000D02*
X100000000Y-175650000D01*
X117650000Y-173500000D02*
X116600000Y-173500000D01*
X112000000Y-174300000D02*
X112365000Y-173935000D01*
X116600000Y-173500000D02*
X116200000Y-173900000D01*
X117650000Y-173500000D02*
X117650000Y-174200000D01*
X117650000Y-174200000D02*
X115350000Y-176500000D01*
X105000000Y-164500000D02*
X106800000Y-164500000D01*
X111800000Y-161500000D02*
X117200000Y-161500000D01*
X111200000Y-163500000D02*
X111800000Y-161500000D01*
X111200000Y-164300000D02*
X111200000Y-163500000D01*
X109400000Y-166100000D02*
X111200000Y-164300000D01*
X108400000Y-166100000D02*
X109400000Y-166100000D01*
X106800000Y-164500000D02*
X108400000Y-166100000D01*
X123000000Y-151800000D02*
X123000000Y-155100000D01*
X117200000Y-165538000D02*
X114905000Y-167833000D01*
X117200000Y-158900000D02*
X117200000Y-161500000D01*
X117200000Y-161500000D02*
X117200000Y-165538000D01*
X119800000Y-156300000D02*
X117200000Y-158900000D01*
X121800000Y-156300000D02*
X119800000Y-156300000D01*
X123000000Y-155100000D02*
X121800000Y-156300000D01*
X100000000Y-165450000D02*
X100000000Y-166900000D01*
X100000000Y-166900000D02*
X109600000Y-166900000D01*
X117650000Y-167500000D02*
X117200000Y-167500000D01*
X117200000Y-167500000D02*
X115600000Y-169100000D01*
X115600000Y-169100000D02*
X114000000Y-169100000D01*
X114000000Y-169100000D02*
X113635000Y-168735000D01*
X113635000Y-168735000D02*
X113635000Y-167833000D01*
X115350000Y-164500000D02*
X115350000Y-165750000D01*
X113635000Y-166665000D02*
X113635000Y-167833000D01*
X114200000Y-166100000D02*
X114000000Y-166300000D01*
X114000000Y-166300000D02*
X113635000Y-166665000D01*
X115000000Y-166100000D02*
X114200000Y-166100000D01*
X115350000Y-165750000D02*
X115000000Y-166100000D01*
X131000000Y-176498740D02*
X131998740Y-176498740D01*
X131998740Y-176498740D02*
X134000000Y-178500000D01*
X136000000Y-178500000D02*
X138000000Y-176500000D01*
X138000000Y-176500000D02*
X138350000Y-176500000D01*
X131000000Y-179087000D02*
X131000000Y-176498740D01*
X138365000Y-173167000D02*
X138365000Y-176485000D01*
X138365000Y-176485000D02*
X138350000Y-176500000D01*
X131000000Y-154498740D02*
X131000000Y-157087000D01*
X131000000Y-157087000D02*
X132413000Y-158500000D01*
X138350000Y-160850000D02*
X138350000Y-164500000D01*
X136000000Y-158500000D02*
X138350000Y-160850000D01*
X132413000Y-158500000D02*
X134000000Y-158500000D01*
X139635000Y-167833000D02*
X139635000Y-165785000D01*
X139635000Y-165785000D02*
X138350000Y-164500000D01*
X107000000Y-114200000D02*
X103000000Y-114200000D01*
X109365000Y-117833000D02*
X109365000Y-116565000D01*
X109365000Y-116565000D02*
X107000000Y-114200000D01*
X114650000Y-119500000D02*
X111500000Y-119500000D01*
X110635000Y-118635000D02*
X110635000Y-117833000D01*
X111500000Y-119500000D02*
X110635000Y-118635000D01*
X114650000Y-117500000D02*
X114650000Y-119500000D01*
X110650000Y-114500000D02*
X110650000Y-117818000D01*
X110650000Y-117818000D02*
X110635000Y-117833000D01*
X100000000Y-104850000D02*
X103550000Y-104850000D01*
X110650000Y-111950000D02*
X110650000Y-114500000D01*
X103550000Y-104850000D02*
X110650000Y-111950000D01*
X103000000Y-126800000D02*
X107000000Y-126800000D01*
X108095000Y-123167000D02*
X108095000Y-125705000D01*
X108095000Y-125705000D02*
X107000000Y-126800000D01*
X114650000Y-124500000D02*
X112900000Y-124500000D01*
X110200000Y-124700000D02*
X109365000Y-124700000D01*
X109365000Y-124700000D02*
X109500000Y-124700000D01*
X109500000Y-124700000D02*
X109365000Y-124700000D01*
X114650000Y-122500000D02*
X114650000Y-124500000D01*
X110650000Y-126500000D02*
X110650000Y-126150000D01*
X110650000Y-126150000D02*
X109365000Y-124865000D01*
X109365000Y-124865000D02*
X109365000Y-124700000D01*
X109365000Y-124700000D02*
X109365000Y-123167000D01*
X100000000Y-136150000D02*
X103350000Y-136150000D01*
X110650000Y-128850000D02*
X110650000Y-126500000D01*
X103350000Y-136150000D02*
X110650000Y-128850000D01*
X117350000Y-117500000D02*
X117000000Y-117500000D01*
X117000000Y-117500000D02*
X118700000Y-115800000D01*
X118700000Y-115800000D02*
X122700000Y-115800000D01*
X122700000Y-115800000D02*
X123905000Y-117005000D01*
X123905000Y-117005000D02*
X123905000Y-117833000D01*
X123587000Y-98500000D02*
X123587000Y-117515000D01*
X123587000Y-117515000D02*
X123905000Y-117833000D01*
X120998740Y-98500000D02*
X123587000Y-98500000D01*
X120998740Y-142500000D02*
X123587000Y-142500000D01*
X117350000Y-124500000D02*
X118400000Y-124500000D01*
X119300000Y-140801260D02*
X120998740Y-142500000D01*
X119300000Y-125400000D02*
X119300000Y-140801260D01*
X118400000Y-124500000D02*
X119300000Y-125400000D01*
X122635000Y-123167000D02*
X122635000Y-122535000D01*
X118600000Y-124500000D02*
X117350000Y-124500000D01*
X119000000Y-124100000D02*
X118600000Y-124500000D01*
X119000000Y-122300000D02*
X119000000Y-124100000D01*
X119400000Y-121900000D02*
X119000000Y-122300000D01*
X122000000Y-121900000D02*
X119400000Y-121900000D01*
X122635000Y-122535000D02*
X122000000Y-121900000D01*
D31*
X123905000Y-123167000D02*
X123905000Y-122005000D01*
X112905000Y-121105000D02*
X111905000Y-121105000D01*
X113100000Y-121300000D02*
X112905000Y-121105000D01*
X123905000Y-122005000D02*
X123400000Y-121500000D01*
X161000000Y-133750000D02*
X154000000Y-133750000D01*
X154000000Y-133750000D02*
X142000000Y-121750000D01*
X161000000Y-133750000D02*
X159550000Y-133750000D01*
X158400000Y-127600120D02*
X162000000Y-124000120D01*
X158400000Y-132600000D02*
X158400000Y-127600120D01*
X159550000Y-133750000D02*
X158400000Y-132600000D01*
X111905000Y-123167000D02*
X111905000Y-121105000D01*
X106850000Y-120900000D02*
X106000000Y-121750000D01*
X111905000Y-121105000D02*
X111700000Y-120900000D01*
X111700000Y-120900000D02*
X106850000Y-120900000D01*
X126000000Y-121750000D02*
X125322000Y-121750000D01*
X125322000Y-121750000D02*
X123905000Y-123167000D01*
X134000000Y-121750000D02*
X131450000Y-121750000D01*
X126850000Y-120900000D02*
X126000000Y-121750000D01*
X130600000Y-120900000D02*
X126850000Y-120900000D01*
X131450000Y-121750000D02*
X130600000Y-120900000D01*
X134000000Y-121750000D02*
X133322000Y-121750000D01*
X133322000Y-121750000D02*
X131905000Y-123167000D01*
X134000000Y-121750000D02*
X142000000Y-121750000D01*
X139905000Y-123167000D02*
X140583000Y-123167000D01*
X140583000Y-123167000D02*
X142000000Y-121750000D01*
X163460000Y-140500000D02*
X163460000Y-136040000D01*
X163460000Y-136040000D02*
X165000000Y-134500000D01*
X165000000Y-134500000D02*
X161750000Y-134500000D01*
X161750000Y-134500000D02*
X161000000Y-133750000D01*
X169000000Y-134650000D02*
X165150000Y-134650000D01*
X165150000Y-134650000D02*
X165000000Y-134500000D01*
X108095000Y-117833000D02*
X108095000Y-118895000D01*
X120095000Y-118905000D02*
X120095000Y-117833000D01*
X119100000Y-119900000D02*
X120095000Y-118905000D01*
X108700000Y-119500000D02*
X110000000Y-119500000D01*
X108095000Y-118895000D02*
X108700000Y-119500000D01*
X161000000Y-106250000D02*
X155000000Y-106250000D01*
X155000000Y-106250000D02*
X142000000Y-119250000D01*
X161000000Y-106250000D02*
X159350000Y-106250000D01*
X158100000Y-113099880D02*
X162000000Y-116999880D01*
X158100000Y-107500000D02*
X158100000Y-113099880D01*
X159350000Y-106250000D02*
X158100000Y-107500000D01*
X120095000Y-117833000D02*
X120095000Y-119495000D01*
X120095000Y-119495000D02*
X120600000Y-120000000D01*
X120600000Y-120000000D02*
X125250000Y-120000000D01*
X125250000Y-120000000D02*
X126000000Y-119250000D01*
X128095000Y-117833000D02*
X127417000Y-117833000D01*
X127417000Y-117833000D02*
X126000000Y-119250000D01*
X134000000Y-119250000D02*
X126000000Y-119250000D01*
X142000000Y-119250000D02*
X134000000Y-119250000D01*
X136095000Y-117833000D02*
X136095000Y-118495000D01*
X136095000Y-118495000D02*
X136850000Y-119250000D01*
X136850000Y-119250000D02*
X142000000Y-119250000D01*
X108095000Y-117833000D02*
X107417000Y-117833000D01*
X107417000Y-117833000D02*
X106000000Y-119250000D01*
X165000000Y-105500000D02*
X161750000Y-105500000D01*
X161750000Y-105500000D02*
X161000000Y-106250000D01*
X169000000Y-105350000D02*
X165150000Y-105350000D01*
X165150000Y-105350000D02*
X165000000Y-105500000D01*
X168540000Y-100500000D02*
X168540000Y-104890000D01*
X168540000Y-104890000D02*
X169000000Y-105350000D01*
X192000000Y-124000120D02*
X192000000Y-128000000D01*
X185000000Y-135000000D02*
X185000000Y-140500000D01*
X192000000Y-128000000D02*
X185000000Y-135000000D01*
X192000000Y-116999880D02*
X192000000Y-112000000D01*
X186500000Y-106500000D02*
X186500000Y-99500000D01*
X192000000Y-112000000D02*
X186500000Y-106500000D01*
D32*
X175000000Y-102040000D02*
X175000000Y-105500000D01*
X171000000Y-109500000D02*
X171000000Y-115340000D01*
X175000000Y-105500000D02*
X171000000Y-109500000D01*
X125000000Y-106500000D02*
X125000000Y-105400000D01*
X121000000Y-102800000D02*
X121000000Y-101800000D01*
X122800000Y-104600000D02*
X121000000Y-102800000D01*
X124500000Y-104900000D02*
X124500000Y-104800000D01*
X125000000Y-105400000D02*
X124500000Y-104900000D01*
X131905000Y-117833000D02*
X131905000Y-110305000D01*
X127300000Y-106500000D02*
X125000000Y-106500000D01*
X127500000Y-106700000D02*
X127300000Y-106500000D01*
X131300000Y-104600000D02*
X129400000Y-106500000D01*
X135600000Y-104600000D02*
X131300000Y-104600000D01*
X136300000Y-105300000D02*
X135600000Y-104600000D01*
X136300000Y-107400000D02*
X136300000Y-105300000D01*
X135700000Y-108000000D02*
X136300000Y-107400000D01*
X134210000Y-108000000D02*
X135700000Y-108000000D01*
X131905000Y-110305000D02*
X134210000Y-108000000D01*
X115000000Y-98500000D02*
X115000000Y-98900000D01*
X115000000Y-98900000D02*
X116500000Y-100400000D01*
X116500000Y-100400000D02*
X119600000Y-100400000D01*
X119600000Y-100400000D02*
X121000000Y-101800000D01*
X115000000Y-98500000D02*
X114100000Y-98500000D01*
X105900000Y-100400000D02*
X107000000Y-101500000D01*
X105900000Y-97200000D02*
X105900000Y-100400000D01*
X106400000Y-96700000D02*
X105900000Y-97200000D01*
X112300000Y-96700000D02*
X106400000Y-96700000D01*
X114100000Y-98500000D02*
X112300000Y-96700000D01*
X135000000Y-106500000D02*
X133600000Y-106500000D01*
X133600000Y-106500000D02*
X129100000Y-111000000D01*
X119100000Y-114500000D02*
X117000000Y-114500000D01*
X122800000Y-110800000D02*
X119100000Y-114500000D01*
X129100000Y-111000000D02*
X127500000Y-111000000D01*
X130635000Y-109465000D02*
X130635000Y-117833000D01*
X133600000Y-106500000D02*
X130635000Y-109465000D01*
X124998740Y-134500000D02*
X120300000Y-134500000D01*
X115000000Y-135500000D02*
X115000000Y-142500000D01*
X116000000Y-134500000D02*
X115000000Y-135500000D01*
X118100000Y-134500000D02*
X116000000Y-134500000D01*
X118200000Y-134400000D02*
X118100000Y-134500000D01*
X120300000Y-134500000D02*
X120100000Y-134300000D01*
X107000000Y-139500000D02*
X107000000Y-139900000D01*
X107000000Y-139900000D02*
X105900000Y-141000000D01*
X113200000Y-144300000D02*
X115000000Y-142500000D01*
X106700000Y-144300000D02*
X113200000Y-144300000D01*
X105900000Y-143500000D02*
X106700000Y-144300000D01*
X105900000Y-141000000D02*
X105900000Y-143500000D01*
X124998740Y-134500000D02*
X127587000Y-134500000D01*
X121000000Y-126800000D02*
X121000000Y-133700000D01*
X121800000Y-134500000D02*
X124998740Y-134500000D01*
X121000000Y-133700000D02*
X121800000Y-134500000D01*
X130635000Y-123167000D02*
X130635000Y-122435000D01*
X123200000Y-126800000D02*
X121000000Y-126800000D01*
X127100000Y-122900000D02*
X123200000Y-126800000D01*
X127100000Y-122200000D02*
X127100000Y-122900000D01*
X127300000Y-122000000D02*
X127100000Y-122200000D01*
X130200000Y-122000000D02*
X127300000Y-122000000D01*
X130635000Y-122435000D02*
X130200000Y-122000000D01*
X117000000Y-139500000D02*
X117000000Y-137000000D01*
X129413000Y-137500000D02*
X132413000Y-134500000D01*
X121800000Y-137500000D02*
X129413000Y-137500000D01*
X120100000Y-135800000D02*
X121800000Y-137500000D01*
X117000000Y-137000000D02*
X118200000Y-135800000D01*
X129365000Y-123167000D02*
X129365000Y-123965000D01*
X132413000Y-131187000D02*
X132413000Y-134500000D01*
X132700000Y-130900000D02*
X132413000Y-131187000D01*
X130000000Y-124600000D02*
X133700000Y-124600000D01*
X129365000Y-123965000D02*
X130000000Y-124600000D01*
X135001260Y-134500000D02*
X132413000Y-134500000D01*
X139905000Y-117833000D02*
X139905000Y-114105000D01*
X137100000Y-100600000D02*
X135000000Y-98500000D01*
X137100000Y-111300000D02*
X137100000Y-100600000D01*
X139905000Y-114105000D02*
X137100000Y-111300000D01*
X135000000Y-98500000D02*
X131001260Y-98500000D01*
X122635000Y-117833000D02*
X122635000Y-116835000D01*
X125000000Y-115900000D02*
X125000000Y-112500000D01*
X124600000Y-116300000D02*
X125000000Y-115900000D01*
X122635000Y-116835000D02*
X122400000Y-116600000D01*
X117350000Y-119500000D02*
X117800000Y-119500000D01*
X117800000Y-119500000D02*
X118800000Y-118500000D01*
X118800000Y-118500000D02*
X118800000Y-117000000D01*
X118800000Y-117000000D02*
X119200000Y-116600000D01*
X119200000Y-116600000D02*
X122000000Y-116600000D01*
X122000000Y-116600000D02*
X122635000Y-117235000D01*
X122635000Y-117235000D02*
X122635000Y-117833000D01*
X128413000Y-98500000D02*
X128413000Y-109087000D01*
X128413000Y-109087000D02*
X125000000Y-112500000D01*
X131001260Y-98500000D02*
X128413000Y-98500000D01*
X135000000Y-112500000D02*
X132700000Y-112500000D01*
X122800000Y-114500000D02*
X121000000Y-114500000D01*
X128200000Y-114300000D02*
X125900000Y-114300000D01*
X129800000Y-112700000D02*
X128200000Y-114300000D01*
X138635000Y-117833000D02*
X138635000Y-116135000D01*
X138635000Y-116135000D02*
X135000000Y-112500000D01*
X121365000Y-123167000D02*
X121365000Y-124165000D01*
X121365000Y-124165000D02*
X121600000Y-124400000D01*
X130900000Y-126300000D02*
X132413000Y-127813000D01*
X126800000Y-124300000D02*
X128700000Y-126200000D01*
X121600000Y-124400000D02*
X124600000Y-124400000D01*
X132413000Y-127813000D02*
X132413000Y-128500000D01*
X117350000Y-122500000D02*
X117600000Y-122500000D01*
X117600000Y-122500000D02*
X119000000Y-121100000D01*
X121400000Y-124200000D02*
X121365000Y-124165000D01*
X119000000Y-121100000D02*
X121300000Y-121100000D01*
X131001260Y-142500000D02*
X135000000Y-142500000D01*
X131001260Y-142500000D02*
X128413000Y-142500000D01*
X135001260Y-128500000D02*
X136900000Y-128500000D01*
X136900000Y-128500000D02*
X137200000Y-128800000D01*
X137200000Y-128800000D02*
X137200000Y-137600000D01*
X137200000Y-137600000D02*
X135000000Y-139800000D01*
X135000000Y-139800000D02*
X135000000Y-142500000D01*
X138635000Y-123167000D02*
X138635000Y-123965000D01*
X138635000Y-123965000D02*
X135001260Y-127598740D01*
X135001260Y-127598740D02*
X135001260Y-128500000D01*
X135001260Y-128500000D02*
X132413000Y-128500000D01*
X124998740Y-128500000D02*
X123200000Y-128500000D01*
X122100000Y-129600000D02*
X122100000Y-133200000D01*
X123200000Y-128500000D02*
X122100000Y-129600000D01*
X137365000Y-123167000D02*
X137365000Y-123835000D01*
X130587000Y-125500000D02*
X127587000Y-128500000D01*
X135700000Y-125500000D02*
X130587000Y-125500000D01*
X137365000Y-123835000D02*
X135700000Y-125500000D01*
X124998740Y-128500000D02*
X127587000Y-128500000D01*
X100000000Y-192500000D02*
X100000000Y-188600000D01*
X100000000Y-148500000D02*
X100000000Y-152400000D01*
X100000000Y-181100000D02*
X100000000Y-178350000D01*
X100000000Y-159900000D02*
X100000000Y-162750000D01*
X150000000Y-177850000D02*
X150000000Y-181500000D01*
X150000000Y-189000000D02*
X149900000Y-189000000D01*
X149900000Y-189000000D02*
X149000000Y-189900000D01*
X149000000Y-189900000D02*
X149000000Y-192500000D01*
X150000000Y-159500000D02*
X150000000Y-163150000D01*
X149000000Y-148500000D02*
X149000000Y-151000000D01*
X149000000Y-151000000D02*
X150000000Y-152000000D01*
X153000000Y-175150000D02*
X154450000Y-175150000D01*
X157000000Y-178300000D02*
X157000000Y-192500000D01*
X155200000Y-175900000D02*
X155200000Y-176700000D01*
X154450000Y-175150000D02*
X155200000Y-175900000D01*
X153000000Y-175150000D02*
X154550000Y-175150000D01*
X155095000Y-174605000D02*
X155095000Y-173167000D01*
X154550000Y-175150000D02*
X155095000Y-174605000D01*
X153000000Y-165850000D02*
X155650000Y-165850000D01*
X157000000Y-161500000D02*
X157000000Y-148500000D01*
X156400000Y-162100000D02*
X157000000Y-161500000D01*
X155650000Y-165850000D02*
X156400000Y-165100000D01*
X153000000Y-165850000D02*
X155750000Y-165850000D01*
X156365000Y-166465000D02*
X156365000Y-167833000D01*
X155750000Y-165850000D02*
X156365000Y-166465000D01*
X153000000Y-177850000D02*
X152700000Y-177850000D01*
X152700000Y-177850000D02*
X150000000Y-175150000D01*
X156365000Y-173167000D02*
X156365000Y-177135000D01*
X155650000Y-177850000D02*
X153000000Y-177850000D01*
X156365000Y-177135000D02*
X155650000Y-177850000D01*
X153000000Y-163150000D02*
X157050000Y-163150000D01*
X157635000Y-163735000D02*
X157635000Y-167833000D01*
X157050000Y-163150000D02*
X157635000Y-163735000D01*
X150000000Y-165850000D02*
X150300000Y-165850000D01*
X150300000Y-165850000D02*
X153000000Y-163150000D01*
X169000000Y-167040000D02*
X169000000Y-173340000D01*
D31*
X192000000Y-174000120D02*
X192000000Y-181500000D01*
X192000000Y-166999880D02*
X192000000Y-159500000D01*
M02*
