G04 #@! TF.FileFunction,Paste,Top*
%FSLAX46Y46*%
G04 Gerber Fmt 4.6, Leading zero omitted, Abs format (unit mm)*
G04 Created by KiCad (PCBNEW 4.0.7) date 03/05/18 22:52:48*
%MOMM*%
%LPD*%
G01*
G04 APERTURE LIST*
%ADD10C,0.100000*%
%ADD11R,0.508000X1.143000*%
%ADD12R,2.500000X3.200000*%
%ADD13R,1.250000X1.500000*%
%ADD14R,1.600000X2.000000*%
%ADD15R,1.300000X1.500000*%
%ADD16R,1.500000X1.300000*%
%ADD17R,1.500000X1.250000*%
G04 APERTURE END LIST*
D10*
D11*
X123905000Y-123167000D03*
X123905000Y-117833000D03*
X122635000Y-123167000D03*
X121365000Y-123167000D03*
X120095000Y-123167000D03*
X122635000Y-117833000D03*
X121365000Y-117833000D03*
X120095000Y-117833000D03*
D12*
X186000000Y-176650000D03*
X186000000Y-172350000D03*
X186000000Y-168650000D03*
X186000000Y-164350000D03*
D13*
X177000000Y-175750000D03*
X177000000Y-173250000D03*
X177000000Y-167750000D03*
X177000000Y-165250000D03*
D14*
X181000000Y-176500000D03*
X181000000Y-172500000D03*
X181000000Y-168500000D03*
X181000000Y-164500000D03*
D10*
G36*
X125836940Y-136449450D02*
X125836940Y-132550550D01*
X129337060Y-133650370D01*
X129337060Y-135349630D01*
X125836940Y-136449450D01*
X125836940Y-136449450D01*
G37*
G36*
X134163060Y-132550550D02*
X134163060Y-136449450D01*
X130662940Y-135349630D01*
X130662940Y-133650370D01*
X134163060Y-132550550D01*
X134163060Y-132550550D01*
G37*
G36*
X134163060Y-126550550D02*
X134163060Y-130449450D01*
X130662940Y-129349630D01*
X130662940Y-127650370D01*
X134163060Y-126550550D01*
X134163060Y-126550550D01*
G37*
G36*
X125836940Y-130449450D02*
X125836940Y-126550550D01*
X129337060Y-127650370D01*
X129337060Y-129349630D01*
X125836940Y-130449450D01*
X125836940Y-130449450D01*
G37*
D15*
X100000000Y-175650000D03*
X100000000Y-178350000D03*
X100000000Y-165450000D03*
X100000000Y-162750000D03*
D16*
X112650000Y-176500000D03*
X115350000Y-176500000D03*
X120350000Y-173500000D03*
X117650000Y-173500000D03*
X112650000Y-164500000D03*
X115350000Y-164500000D03*
X120350000Y-167500000D03*
X117650000Y-167500000D03*
D10*
G36*
X129801120Y-177336940D02*
X132198880Y-177336940D01*
X131800100Y-180837060D01*
X130199900Y-180837060D01*
X129801120Y-177336940D01*
X129801120Y-177336940D01*
G37*
G36*
X132198880Y-185663060D02*
X129801120Y-185663060D01*
X130199900Y-182162940D01*
X131800100Y-182162940D01*
X132198880Y-185663060D01*
X132198880Y-185663060D01*
G37*
G36*
X129801120Y-155336940D02*
X132198880Y-155336940D01*
X131800100Y-158837060D01*
X130199900Y-158837060D01*
X129801120Y-155336940D01*
X129801120Y-155336940D01*
G37*
G36*
X132198880Y-163663060D02*
X129801120Y-163663060D01*
X130199900Y-160162940D01*
X131800100Y-160162940D01*
X132198880Y-163663060D01*
X132198880Y-163663060D01*
G37*
D16*
X135650000Y-176500000D03*
X138350000Y-176500000D03*
X135650000Y-164500000D03*
X138350000Y-164500000D03*
D15*
X100000000Y-104850000D03*
X100000000Y-102150000D03*
X100000000Y-136150000D03*
X100000000Y-138850000D03*
D16*
X113350000Y-114500000D03*
X110650000Y-114500000D03*
X117350000Y-119500000D03*
X114650000Y-119500000D03*
X113350000Y-126500000D03*
X110650000Y-126500000D03*
X117350000Y-122500000D03*
X114650000Y-122500000D03*
X117350000Y-117500000D03*
X114650000Y-117500000D03*
X117350000Y-124500000D03*
X114650000Y-124500000D03*
D10*
G36*
X130163060Y-97301120D02*
X130163060Y-99698880D01*
X126662940Y-99300100D01*
X126662940Y-97699900D01*
X130163060Y-97301120D01*
X130163060Y-97301120D01*
G37*
G36*
X121836940Y-99698880D02*
X121836940Y-97301120D01*
X125337060Y-97699900D01*
X125337060Y-99300100D01*
X121836940Y-99698880D01*
X121836940Y-99698880D01*
G37*
G36*
X130163060Y-141301120D02*
X130163060Y-143698880D01*
X126662940Y-143300100D01*
X126662940Y-141699900D01*
X130163060Y-141301120D01*
X130163060Y-141301120D01*
G37*
G36*
X121836940Y-143698880D02*
X121836940Y-141301120D01*
X125337060Y-141699900D01*
X125337060Y-143300100D01*
X121836940Y-143698880D01*
X121836940Y-143698880D01*
G37*
D11*
X111095000Y-167833000D03*
X111095000Y-173167000D03*
X112365000Y-167833000D03*
X113635000Y-167833000D03*
X114905000Y-167833000D03*
X112365000Y-173167000D03*
X113635000Y-173167000D03*
X114905000Y-173167000D03*
X123095000Y-167833000D03*
X123095000Y-173167000D03*
X124365000Y-167833000D03*
X125635000Y-167833000D03*
X126905000Y-167833000D03*
X124365000Y-173167000D03*
X125635000Y-173167000D03*
X126905000Y-173167000D03*
X129095000Y-167833000D03*
X129095000Y-173167000D03*
X130365000Y-167833000D03*
X131635000Y-167833000D03*
X132905000Y-167833000D03*
X130365000Y-173167000D03*
X131635000Y-173167000D03*
X132905000Y-173167000D03*
X137095000Y-167833000D03*
X137095000Y-173167000D03*
X138365000Y-167833000D03*
X139635000Y-167833000D03*
X140905000Y-167833000D03*
X138365000Y-173167000D03*
X139635000Y-173167000D03*
X140905000Y-173167000D03*
X111905000Y-123167000D03*
X111905000Y-117833000D03*
X110635000Y-123167000D03*
X109365000Y-123167000D03*
X108095000Y-123167000D03*
X110635000Y-117833000D03*
X109365000Y-117833000D03*
X108095000Y-117833000D03*
X131905000Y-123167000D03*
X131905000Y-117833000D03*
X130635000Y-123167000D03*
X129365000Y-123167000D03*
X128095000Y-123167000D03*
X130635000Y-117833000D03*
X129365000Y-117833000D03*
X128095000Y-117833000D03*
X139905000Y-123167000D03*
X139905000Y-117833000D03*
X138635000Y-123167000D03*
X137365000Y-123167000D03*
X136095000Y-123167000D03*
X138635000Y-117833000D03*
X137365000Y-117833000D03*
X136095000Y-117833000D03*
D12*
X169000000Y-134650000D03*
X169000000Y-130350000D03*
X169000000Y-109650000D03*
X169000000Y-105350000D03*
D13*
X161000000Y-133750000D03*
X161000000Y-131250000D03*
X161000000Y-108750000D03*
X161000000Y-106250000D03*
D14*
X165000000Y-134500000D03*
X165000000Y-130500000D03*
X165000000Y-109500000D03*
X165000000Y-105500000D03*
D13*
X152000000Y-169250000D03*
X152000000Y-171750000D03*
D17*
X120250000Y-170500000D03*
X117750000Y-170500000D03*
D13*
X109000000Y-169250000D03*
X109000000Y-171750000D03*
X143000000Y-169250000D03*
X143000000Y-171750000D03*
X126000000Y-121750000D03*
X126000000Y-119250000D03*
X142000000Y-121750000D03*
X142000000Y-119250000D03*
X134000000Y-121750000D03*
X134000000Y-119250000D03*
X106000000Y-121750000D03*
X106000000Y-119250000D03*
D10*
G36*
X128198880Y-185663060D02*
X125801120Y-185663060D01*
X126199900Y-182162940D01*
X127800100Y-182162940D01*
X128198880Y-185663060D01*
X128198880Y-185663060D01*
G37*
G36*
X125801120Y-177336940D02*
X128198880Y-177336940D01*
X127800100Y-180837060D01*
X126199900Y-180837060D01*
X125801120Y-177336940D01*
X125801120Y-177336940D01*
G37*
G36*
X128198880Y-163663060D02*
X125801120Y-163663060D01*
X126199900Y-160162940D01*
X127800100Y-160162940D01*
X128198880Y-163663060D01*
X128198880Y-163663060D01*
G37*
G36*
X125801120Y-155336940D02*
X128198880Y-155336940D01*
X127800100Y-158837060D01*
X126199900Y-158837060D01*
X125801120Y-155336940D01*
X125801120Y-155336940D01*
G37*
D15*
X150000000Y-175150000D03*
X150000000Y-177850000D03*
X150000000Y-165850000D03*
X150000000Y-163150000D03*
X153000000Y-175150000D03*
X153000000Y-177850000D03*
X153000000Y-165850000D03*
X153000000Y-163150000D03*
D11*
X155095000Y-167833000D03*
X155095000Y-173167000D03*
X156365000Y-167833000D03*
X157635000Y-167833000D03*
X158905000Y-167833000D03*
X156365000Y-173167000D03*
X157635000Y-173167000D03*
X158905000Y-173167000D03*
M02*
