M48
INCH,TZ
T1C0.016
T2C0.031
T3C0.035
T4C0.039
T5C0.039
T6C0.045
T7C0.047
T8C0.047
%
G90
G05
T1
X42126Y-68307
X42126Y-69252
X43150Y-65709
X43307Y-47047
X43386Y-49094
X44094Y-68622
X44252Y-62638
X44331Y-63976
X44449Y-49016
X44528Y-47756
X44882Y-65472
X45591Y-68858
X45748Y-68465
X46299Y-71693
X46535Y-52913
X46535Y-53465
X46772Y-70276
X46890Y-47205
X47283Y-52874
X47283Y-53465
X47402Y-49016
X47756Y-47677
X47795Y-48898
X47913Y-46811
X47953Y-69961
X48031Y-63504
X48031Y-71142
X48071Y-52441
X48110Y-60827
X48189Y-45906
X48346Y-41181
X48346Y-43622
X48346Y-45079
X48583Y-47835
X48819Y-63110
X48819Y-71063
X48819Y-71535
X49016Y-41260
X49055Y-45787
X49055Y-48976
X49055Y-61535
X49055Y-62244
X49285Y-69173
X49567Y-45000
X49921Y-48937
X50000Y-65551
X50197Y-42008
X50197Y-43701
X50472Y-68543
X50512Y-48976
X50630Y-69173
X50669Y-49685
X50866Y-45866
X50945Y-41929
X51102Y-44370
X51535Y-49724
X52047Y-68780
X52244Y-44291
X52244Y-51535
X52598Y-65551
X52638Y-49055
X52756Y-62402
X52756Y-70276
X53386Y-48780
X53543Y-62402
X53543Y-70276
X53898Y-45709
X55197Y-68937
X55512Y-65157
X61102Y-69567
X61575Y-63819
X61575Y-65000
X61811Y-70197
X62362Y-69409
X62811Y-65181
X64665Y-66634
X65354Y-67323
X69685Y-67126
T2
X40551Y-39961
X40551Y-44961
X40551Y-49921
X40551Y-54921
X41339Y-59764
X41339Y-64764
X41339Y-69488
X41339Y-74488
X42126Y-39961
X42126Y-44961
X42126Y-49921
X42126Y-54921
X42913Y-59764
X42913Y-64764
X42913Y-69488
X42913Y-74488
X46063Y-40079
X46063Y-45079
X46063Y-49921
X46063Y-54921
X46850Y-59764
X46850Y-64764
X46850Y-69488
X46850Y-74488
X47638Y-40079
X47638Y-45079
X47638Y-49921
X47638Y-54921
X48425Y-59764
X48425Y-64764
X48425Y-69488
X48425Y-74488
X49213Y-41929
X49213Y-44291
X53150Y-41929
X53150Y-44291
X56299Y-55252
X56299Y-59252
X66535Y-68244
X66535Y-72244
X67323Y-45409
X67323Y-49409
T3
X66535Y-64764
X66535Y-65764
X68898Y-39173
X68898Y-40173
T4
X39370Y-38780
X39370Y-56102
X39370Y-58465
X39370Y-60000
X39370Y-62953
X39370Y-71299
X39370Y-74252
X39370Y-75787
X40370Y-38780
X40370Y-56102
X40370Y-58465
X40370Y-75787
X42520Y-38780
X42520Y-56102
X42520Y-58465
X42520Y-75787
X43520Y-38780
X43520Y-56102
X43520Y-58465
X43520Y-75787
X44882Y-71339
X44882Y-74291
X44921Y-60000
X44921Y-62953
X45276Y-38780
X45276Y-56102
X45276Y-58465
X45276Y-75787
X46276Y-38780
X46276Y-56102
X46276Y-58465
X46276Y-75787
X53150Y-38780
X53150Y-56102
X53150Y-58465
X53150Y-75787
X54150Y-38780
X54150Y-56102
X54150Y-58465
X54150Y-75787
X58661Y-58465
X58661Y-75787
X59055Y-59843
X59055Y-62795
X59055Y-71457
X59055Y-74409
X59661Y-58465
X59661Y-75787
X61811Y-58465
X61811Y-75787
X62811Y-58465
X62811Y-75787
X70835Y-55311
X71425Y-39169
X72835Y-55315
X73425Y-39173
X73591Y-62791
X73591Y-71453
X75591Y-62795
X75591Y-71457
T5
X47637Y-38780
X47637Y-56102
X49212Y-50591
X49212Y-52953
X50000Y-60826
X50000Y-64764
X50000Y-69488
X50000Y-73426
X51575Y-60826
X51575Y-64764
X51575Y-69488
X51575Y-73426
X51575Y-38780
X51575Y-56102
X53150Y-50591
X53150Y-52953
T6
X64354Y-39567
X64354Y-55315
X65354Y-39567
X65354Y-55315
X66354Y-39567
X66354Y-55315
T7
X63780Y-46063
X63780Y-47441
X63780Y-48819
X75591Y-46063
X75591Y-47441
X75591Y-48819
X75591Y-65748
X75591Y-67126
X75591Y-68504
T8
X70079Y-60433
X70079Y-62402
X70079Y-71850
X70079Y-73819
X70866Y-43504
X70866Y-45472
X70866Y-49409
X70866Y-51378
T0
M30
