G04 #@! TF.FileFunction,Soldermask,Bot*
%FSLAX46Y46*%
G04 Gerber Fmt 4.6, Leading zero omitted, Abs format (unit mm)*
G04 Created by KiCad (PCBNEW 4.0.7) date 03/05/18 22:52:48*
%MOMM*%
%LPD*%
G01*
G04 APERTURE LIST*
%ADD10C,0.100000*%
%ADD11C,3.600000*%
%ADD12R,2.800000X2.800000*%
%ADD13C,2.800000*%
%ADD14C,2.000000*%
%ADD15R,2.398980X2.398980*%
%ADD16R,2.100000X2.100000*%
%ADD17O,2.100000X2.100000*%
%ADD18C,2.398980*%
%ADD19O,2.000000X2.000000*%
%ADD20C,2.400000*%
%ADD21R,2.200000X2.200000*%
%ADD22C,2.200000*%
%ADD23O,2.432000X2.940000*%
G04 APERTURE END LIST*
D10*
D11*
X192000000Y-140500000D03*
X192000000Y-99500000D03*
X192000000Y-150500000D03*
X192000000Y-190500000D03*
X100000000Y-170500000D03*
D12*
X178000000Y-187500000D03*
D13*
X178000000Y-182500000D03*
D12*
X178000000Y-158500000D03*
D13*
X178000000Y-153500000D03*
D14*
X125000000Y-106500000D03*
X135000000Y-106500000D03*
D15*
X124498360Y-134500000D03*
X135501640Y-134500000D03*
D14*
X125000000Y-112500000D03*
X135000000Y-112500000D03*
D15*
X135501640Y-128500000D03*
X124498360Y-128500000D03*
D16*
X100000000Y-192500000D03*
D17*
X102540000Y-192500000D03*
D16*
X100000000Y-148500000D03*
D17*
X102540000Y-148500000D03*
D16*
X108000000Y-192500000D03*
D17*
X110540000Y-192500000D03*
D16*
X108000000Y-148500000D03*
D17*
X110540000Y-148500000D03*
D18*
X192000000Y-170500000D03*
X192000000Y-174000120D03*
X192000000Y-166999880D03*
D16*
X115000000Y-192500000D03*
D17*
X117540000Y-192500000D03*
D16*
X115000000Y-148500000D03*
D17*
X117540000Y-148500000D03*
D16*
X135000000Y-192500000D03*
D17*
X137540000Y-192500000D03*
D16*
X135000000Y-148500000D03*
D17*
X137540000Y-148500000D03*
D16*
X100000000Y-98500000D03*
D17*
X102540000Y-98500000D03*
D16*
X100000000Y-142500000D03*
D17*
X102540000Y-142500000D03*
D16*
X108000000Y-98500000D03*
D17*
X110540000Y-98500000D03*
D16*
X108000000Y-142500000D03*
D17*
X110540000Y-142500000D03*
D16*
X115000000Y-98500000D03*
D17*
X117540000Y-98500000D03*
D16*
X115000000Y-142500000D03*
D17*
X117540000Y-142500000D03*
D16*
X135000000Y-98500000D03*
D17*
X137540000Y-98500000D03*
D16*
X135000000Y-142500000D03*
D17*
X137540000Y-142500000D03*
D14*
X105000000Y-176500000D03*
D19*
X105000000Y-189200000D03*
D14*
X105000000Y-164500000D03*
D19*
X105000000Y-151800000D03*
D14*
X123000000Y-176500000D03*
D19*
X123000000Y-189200000D03*
D14*
X123000000Y-164500000D03*
D19*
X123000000Y-151800000D03*
D14*
X109000000Y-176500000D03*
D19*
X109000000Y-189200000D03*
D14*
X109000000Y-164500000D03*
D19*
X109000000Y-151800000D03*
D14*
X119000000Y-176500000D03*
D19*
X119000000Y-189200000D03*
D14*
X119000000Y-164500000D03*
D19*
X119000000Y-151800000D03*
D15*
X131000000Y-176498740D03*
X131000000Y-186501260D03*
X131000000Y-154498740D03*
X131000000Y-164501260D03*
D14*
X103000000Y-114200000D03*
D19*
X103000000Y-101500000D03*
D14*
X103000000Y-126800000D03*
D19*
X103000000Y-139500000D03*
D14*
X107000000Y-101500000D03*
D19*
X107000000Y-114200000D03*
D14*
X107000000Y-139500000D03*
D19*
X107000000Y-126800000D03*
D14*
X117000000Y-114500000D03*
D19*
X117000000Y-101800000D03*
D14*
X117000000Y-139500000D03*
D19*
X117000000Y-126800000D03*
D15*
X131001260Y-98500000D03*
X120998740Y-98500000D03*
X131001260Y-142500000D03*
X120998740Y-142500000D03*
D14*
X121000000Y-114500000D03*
D19*
X121000000Y-101800000D03*
D14*
X121000000Y-139500000D03*
D19*
X121000000Y-126800000D03*
D12*
X180000000Y-130500000D03*
D13*
X180000000Y-125500000D03*
D12*
X180000000Y-115500000D03*
D13*
X180000000Y-110500000D03*
D18*
X192000000Y-120500000D03*
X192000000Y-124000120D03*
X192000000Y-116999880D03*
D20*
X185000000Y-140500000D03*
X179920000Y-140490000D03*
X186500000Y-99500000D03*
X181420000Y-99490000D03*
D21*
X175000000Y-99500000D03*
D22*
X175000000Y-102040000D03*
D14*
X171000000Y-125500000D03*
D19*
X171000000Y-115340000D03*
D20*
X100000000Y-181100000D03*
X100000000Y-188600000D03*
X100000000Y-159900000D03*
X100000000Y-152400000D03*
X114000000Y-188700000D03*
X114000000Y-181200000D03*
X114100000Y-152400000D03*
X114100000Y-159900000D03*
D15*
X127000000Y-186501260D03*
X127000000Y-176498740D03*
X127000000Y-164501260D03*
X127000000Y-154498740D03*
D20*
X150000000Y-181500000D03*
X150000000Y-189000000D03*
X150000000Y-159500000D03*
X150000000Y-152000000D03*
D16*
X149000000Y-192500000D03*
D17*
X151540000Y-192500000D03*
D16*
X149000000Y-148500000D03*
D17*
X151540000Y-148500000D03*
D16*
X157000000Y-192500000D03*
D17*
X159540000Y-192500000D03*
D16*
X157000000Y-148500000D03*
D17*
X159540000Y-148500000D03*
D21*
X169000000Y-164500000D03*
D22*
X169000000Y-167040000D03*
D20*
X192000000Y-181500000D03*
X186920000Y-181490000D03*
X192000000Y-159500000D03*
X186920000Y-159490000D03*
D14*
X169000000Y-183500000D03*
D19*
X169000000Y-173340000D03*
D18*
X162000000Y-120500000D03*
X162000000Y-116999880D03*
X162000000Y-124000120D03*
D23*
X166000000Y-140500000D03*
X163460000Y-140500000D03*
X168540000Y-140500000D03*
X166000000Y-100500000D03*
X168540000Y-100500000D03*
X163460000Y-100500000D03*
D11*
X100000000Y-120500000D03*
D14*
X143000000Y-150500000D03*
D19*
X143000000Y-140340000D03*
M02*
